{
.appVersion = "3133";
DisplayStrings = (
combine
);
copyright = "2018 Ben Dunkle. All rights reserved.";
customParameters = (
{
name = vendorID;
value = XXXX;
},
{
name = Axes;
value = (
{
Name = Weight;
Tag = wght;
},
{
Name = Width;
Tag = wdth;
}
);
}
);
date = "2018-05-08 14:08:18 +0000";
designer = "Ben Dunkle";
designerURL = "https://bendunkle.com";
familyName = "Kong Quest";
featurePrefixes = (
{
automatic = 1;
code = "languagesystem DFLT dflt;\012languagesystem latn dflt;\012";
name = Languagesystems;
}
);
fontMaster = (
{
ascender = 792;
capHeight = 720;
customParameters = (
{
name = typoAscender;
value = 792;
},
{
name = typoDescender;
value = -232;
},
{
name = typoLineGap;
value = 176;
}
);
descender = -232;
id = "C3045851-C262-4F1E-804D-9F76D78DC8BA";
weightValue = 400;
widthValue = 5;
xHeight = 479;
}
);
glyphs = (
{
glyphname = A;
layers = (
{
layerId = "C3045851-C262-4F1E-804D-9F76D78DC8BA";
name = Regular;
paths = (
{
closed = 1;
nodes = (
"714 676 OFFCURVE",
"592 771 OFFCURVE",
"451 771 CURVE SMOOTH",
"391 771 LINE SMOOTH",
"251 771 OFFCURVE",
"129 676 OFFCURVE",
"94 540 CURVE SMOOTH",
"55 389 OFFCURVE",
"50 216 OFFCURVE",
"59 152 CURVE SMOOTH",
"70 64 OFFCURVE",
"96 10 OFFCURVE",
"168 1 CURVE SMOOTH",
"231 -6 OFFCURVE",
"300 18 OFFCURVE",
"348 100 CURVE",
"401 85 OFFCURVE",
"449 86 OFFCURVE",
"495 100 CURVE",
"542 12 OFFCURVE",
"612 -6 OFFCURVE",
"674 1 CURVE SMOOTH",
"747 10 OFFCURVE",
"773 64 OFFCURVE",
"784 152 CURVE SMOOTH",
"792 216 OFFCURVE",
"788 389 OFFCURVE",
"749 540 CURVE SMOOTH"
);
},
{
closed = 1;
nodes = (
"352 285 OFFCURVE",
"380 344 OFFCURVE",
"414 344 CURVE SMOOTH",
"448 344 OFFCURVE",
"476 285 OFFCURVE",
"476 251 CURVE",
"442 256 OFFCURVE",
"393 256 OFFCURVE",
"352 251 CURVE"
);
}
);
width = 842;
}
);
unicode = 0041;
},
{
glyphname = B;
lastChange = "2023-03-06 21:17:25 +0000";
layers = (
{
layerId = "C3045851-C262-4F1E-804D-9F76D78DC8BA";
name = Regular;
paths = (
{
closed = 1;
nodes = (
"96 496 OFFCURVE",
"88 296 OFFCURVE",
"101 202 CURVE",
"101 202 OFFCURVE",
"31 137 OFFCURVE",
"64 72 CURVE SMOOTH",
"93 16 OFFCURVE",
"235 0 OFFCURVE",
"346 0 CURVE SMOOTH",
"592 0 OFFCURVE",
"755 111 OFFCURVE",
"755 255 CURVE SMOOTH",
"755 352 OFFCURVE",
"672 404 OFFCURVE",
"618 434 CURVE",
"645 462 OFFCURVE",
"667 492 OFFCURVE",
"667 558 CURVE SMOOTH",
"667 686 OFFCURVE",
"585 771 OFFCURVE",
"308 771 CURVE SMOOTH",
"184 771 OFFCURVE",
"74 757 OFFCURVE",
"62 702 CURVE SMOOTH",
"47 635 OFFCURVE",
"105 626 OFFCURVE",
"105 625 CURVE SMOOTH"
);
},
{
closed = 1;
nodes = (
"348 504 OFFCURVE",
"345 547 OFFCURVE",
"342 589 CURVE",
"375 589 OFFCURVE",
"414 577 OFFCURVE",
"414 527 CURVE SMOOTH",
"414 472 OFFCURVE",
"380 461 OFFCURVE",
"350 461 CURVE"
);
},
{
closed = 1;
nodes = (
"426 255 OFFCURVE",
"388 240 OFFCURVE",
"354 238 CURVE",
"354 366 LINE",
"383 368 OFFCURVE",
"418 360 OFFCURVE",
"422 305 CURVE SMOOTH"
);
}
);
width = 810;
}
);
unicode = 0042;
},
{
glyphname = C;
layers = (
{
layerId = "C3045851-C262-4F1E-804D-9F76D78DC8BA";
name = Regular;
paths = (
{
closed = 1;
nodes = (
"632 351 OFFCURVE",
"617 471 OFFCURVE",
"611 511 CURVE",
"683 513 OFFCURVE",
"717 549 OFFCURVE",
"711 613 CURVE SMOOTH",
"705 681 OFFCURVE",
"587 775 OFFCURVE",
"385 771 CURVE SMOOTH",
"182 767 OFFCURVE",
"55 617 OFFCURVE",
"55 386 CURVE SMOOTH",
"55 154 OFFCURVE",
"182 8 OFFCURVE",
"385 0 CURVE SMOOTH",
"589 -7 OFFCURVE",
"705 109 OFFCURVE",
"711 176 CURVE SMOOTH",
"717 241 OFFCURVE",
"683 276 OFFCURVE",
"611 279 CURVE"
);
}
);
width = 766;
}
);
unicode = 0043;
},
{
glyphname = D;
layers = (
{
layerId = "C3045851-C262-4F1E-804D-9F76D78DC8BA";
name = Regular;
paths = (
{
closed = 1;
nodes = (
"114 497 OFFCURVE",
"105 286 OFFCURVE",
"119 187 CURVE",
"119 187 OFFCURVE",
"33 163 OFFCURVE",
"61 91 CURVE SMOOTH",
"83 35 OFFCURVE",
"169 0 OFFCURVE",
"279 0 CURVE SMOOTH",
"475 0 OFFCURVE",
"759 31 OFFCURVE",
"759 362 CURVE SMOOTH",
"759 694 OFFCURVE",
"453 785 OFFCURVE",
"333 787 CURVE SMOOTH",
"205 790 OFFCURVE",
"91 773 OFFCURVE",
"78 715 CURVE SMOOTH",
"63 644 OFFCURVE",
"123 634 OFFCURVE",
"123 634 CURVE"
);
},
{
closed = 1;
nodes = (
"398 379 OFFCURVE",
"395 439 OFFCURVE",
"390 498 CURVE",
"414 496 OFFCURVE",
"441 483 OFFCURVE",
"457 458 CURVE SMOOTH",
"488 411 OFFCURVE",
"477 326 OFFCURVE",
"400 317 CURVE"
);
}
);
width = 815;
}
);
unicode = 0044;
},
{
glyphname = E;
layers = (
{
layerId = "C3045851-C262-4F1E-804D-9F76D78DC8BA";
name = Regular;
paths = (
{
closed = 1;
nodes = (
"582 226 OFFCURVE",
"584 295 OFFCURVE",
"586 329 CURVE",
"632 341 OFFCURVE",
"666 373 OFFCURVE",
"666 411 CURVE SMOOTH",
"666 449 OFFCURVE",
"632 481 OFFCURVE",
"586 493 CURVE",
"583 551 OFFCURVE",
"579 566 OFFCURVE",
"572 594 CURVE",
"608 601 OFFCURVE",
"692 644 OFFCURVE",
"676 705 CURVE SMOOTH",
"653 794 OFFCURVE",
"248 789 OFFCURVE",
"143 715 CURVE SMOOTH",
"36 640 OFFCURVE",
"25 200 OFFCURVE",
"119 78 CURVE SMOOTH",
"212 -43 OFFCURVE",
"687 -18 OFFCURVE",
"694 115 CURVE SMOOTH",
"698 197 OFFCURVE",
"608 193 OFFCURVE",
"579 200 CURVE"
);
}
);
width = 749;
}
);
unicode = 0045;
},
{
glyphname = F;
lastChange = "2023-03-06 21:17:25 +0000";
layers = (
{
layerId = "C3045851-C262-4F1E-804D-9F76D78DC8BA";
name = Regular;
paths = (
{
closed = 1;
nodes = (
"572 497 OFFCURVE",
"572 503 OFFCURVE",
"571 508 CURVE",
"569 544 OFFCURVE",
"566 561 OFFCURVE",
"562 579 CURVE SMOOTH",
"559 593 LINE",
"596 601 OFFCURVE",
"678 644 OFFCURVE",
"663 705 CURVE SMOOTH",
"654 738 OFFCURVE",
"594 758 OFFCURVE",
"515 766 CURVE SMOOTH",
"381 781 OFFCURVE",
"195 762 OFFCURVE",
"129 715 CURVE SMOOTH",
"115 706 OFFCURVE",
"104 691 OFFCURVE",
"93 672 CURVE",
"69 572 OFFCURVE",
"55 455 OFFCURVE",
"55 329 CURVE SMOOTH",
"55 275 OFFCURVE",
"58 223 OFFCURVE",
"63 173 CURVE",
"73 133 OFFCURVE",
"87 99 OFFCURVE",
"104 77 CURVE SMOOTH",
"148 20 OFFCURVE",
"220 0 OFFCURVE",
"326 0 CURVE SMOOTH",
"487 0 OFFCURVE",
"578 74 OFFCURVE",
"578 201 CURVE",
"580 235 OFFCURVE",
"581 294 OFFCURVE",
"581 329 CURVE SMOOTH",
"581 331 LINE",
"623 344 OFFCURVE",
"652 374 OFFCURVE",
"652 410 CURVE SMOOTH",
"652 448 OFFCURVE",
"619 480 OFFCURVE",
"573 492 CURVE"
);
}
);
width = 720;
}
);
unicode = 0046;
},
{
glyphname = G;
lastChange = "2023-03-06 21:17:25 +0000";
layers = (
{
layerId = "C3045851-C262-4F1E-804D-9F76D78DC8BA";
name = Regular;
paths = (
{
closed = 1;
nodes = (
"726 459 OFFCURVE",
"657 472 OFFCURVE",
"609 475 CURVE",
"609 478 LINE SMOOTH",
"606 511 OFFCURVE",
"608 528 OFFCURVE",
"603 560 CURVE",
"679 568 OFFCURVE",
"742 607 OFFCURVE",
"742 662 CURVE SMOOTH",
"742 717 OFFCURVE",
"614 776 OFFCURVE",
"393 776 CURVE SMOOTH",
"173 776 OFFCURVE",
"55 610 OFFCURVE",
"55 429 CURVE SMOOTH",
"55 236 OFFCURVE",
"135 0 OFFCURVE",
"344 0 CURVE SMOOTH",
"453 0 OFFCURVE",
"541 38 OFFCURVE",
"580 74 CURVE",
"601 50 OFFCURVE",
"622 5 OFFCURVE",
"671 5 CURVE SMOOTH",
"751 5 OFFCURVE",
"798 152 OFFCURVE",
"798 240 CURVE SMOOTH",
"798 328 OFFCURVE",
"777 390 OFFCURVE",
"761 412 CURVE SMOOTH"
);
}
);
width = 852;
}
);
unicode = 0047;
},
{
glyphname = H;
lastChange = "2023-03-06 21:17:25 +0000";
layers = (
{
layerId = "C3045851-C262-4F1E-804D-9F76D78DC8BA";
name = Regular;
paths = (
{
closed = 1;
nodes = (
"674 813 OFFCURVE",
"554 803 OFFCURVE",
"515 725 CURVE SMOOTH",
"504 704 OFFCURVE",
"489 616 OFFCURVE",
"480 511 CURVE SMOOTH",
"480 514 OFFCURVE",
"408 514 OFFCURVE",
"408 511 CURVE SMOOTH",
"399 616 OFFCURVE",
"384 704 OFFCURVE",
"374 725 CURVE SMOOTH",
"335 803 OFFCURVE",
"214 814 OFFCURVE",
"155 762 CURVE SMOOTH",
"63 683 OFFCURVE",
"41 355 OFFCURVE",
"63 159 CURVE SMOOTH",
"84 -37 OFFCURVE",
"295 -20 OFFCURVE",
"365 43 CURVE SMOOTH",
"406 80 OFFCURVE",
"418 201 OFFCURVE",
"417 332 CURVE",
"431 328 OFFCURVE",
"459 329 OFFCURVE",
"471 332 CURVE",
"470 202 OFFCURVE",
"483 80 OFFCURVE",
"524 43 CURVE SMOOTH",
"593 -20 OFFCURVE",
"804 -37 OFFCURVE",
"826 159 CURVE SMOOTH",
"847 355 OFFCURVE",
"826 683 OFFCURVE",
"734 762 CURVE SMOOTH"
);
}
);
width = 889;
}
);
unicode = 0048;
},
{
glyphname = I;
layers = (
{
layerId = "C3045851-C262-4F1E-804D-9F76D78DC8BA";
name = Regular;
paths = (
{
closed = 1;
nodes = (
"55 37 OFFCURVE",
"174 0 OFFCURVE",
"339 0 CURVE SMOOTH",
"504 0 OFFCURVE",
"630 41 OFFCURVE",
"630 76 CURVE SMOOTH",
"630 101 OFFCURVE",
"615 124 OFFCURVE",
"578 142 CURVE",
"602 285 OFFCURVE",
"583 508 OFFCURVE",
"545 640 CURVE",
"586 658 OFFCURVE",
"602 683 OFFCURVE",
"602 711 CURVE SMOOTH",
"602 751 OFFCURVE",
"491 779 OFFCURVE",
"339 779 CURVE SMOOTH",
"187 779 OFFCURVE",
"83 750 OFFCURVE",
"83 711 CURVE SMOOTH",
"83 683 OFFCURVE",
"97 658 OFFCURVE",
"136 640 CURVE",
"104 510 OFFCURVE",
"91 291 OFFCURVE",
"120 148 CURVE",
"72 130 OFFCURVE",
"55 105 OFFCURVE",
"55 76 CURVE SMOOTH"
);
}
);
width = 685;
}
);
unicode = 0049;
},
{
glyphname = J;
layers = (
{
layerId = "C3045851-C262-4F1E-804D-9F76D78DC8BA";
name = Regular;
paths = (
{
closed = 1;
nodes = (
"233 648 OFFCURVE",
"205 395 OFFCURVE",
"215 236 CURVE",
"215 236 OFFCURVE",
"84 267 OFFCURVE",
"58 192 CURVE SMOOTH",
"32 115 OFFCURVE",
"191 -10 OFFCURVE",
"367 1 CURVE SMOOTH",
"546 11 OFFCURVE",
"625 65 OFFCURVE",
"649 248 CURVE SMOOTH",
"674 431 OFFCURVE",
"659 666 OFFCURVE",
"554 740 CURVE SMOOTH",
"485 788 OFFCURVE",
"339 782 OFFCURVE",
"286 715 CURVE SMOOTH"
);
}
);
width = 714;
}
);
unicode = 004A;
},
{
glyphname = K;
layers = (
{
layerId = "C3045851-C262-4F1E-804D-9F76D78DC8BA";
name = Regular;
paths = (
{
closed = 1;
nodes = (
"694 514 OFFCURVE",
"777 639 OFFCURVE",
"701 714 CURVE SMOOTH",
"605 811 OFFCURVE",
"437 704 OFFCURVE",
"394 583 CURVE",
"388 617 OFFCURVE",
"373 771 OFFCURVE",
"251 771 CURVE SMOOTH",
"177 771 OFFCURVE",
"177 762 OFFCURVE",
"152 740 CURVE SMOOTH",
"63 663 OFFCURVE",
"42 345 OFFCURVE",
"63 154 CURVE SMOOTH",
"83 -36 OFFCURVE",
"289 -20 OFFCURVE",
"356 42 CURVE SMOOTH",
"374 58 OFFCURVE",
"386 92 OFFCURVE",
"394 135 CURVE",
"441 77 OFFCURVE",
"497 25 OFFCURVE",
"553 15 CURVE SMOOTH",
"696 -10 OFFCURVE",
"784 99 OFFCURVE",
"784 191 CURVE SMOOTH",
"784 251 OFFCURVE",
"706 357 OFFCURVE",
"595 451 CURVE"
);
}
);
width = 839;
}
);
unicode = 004B;
},
{
glyphname = L;
layers = (
{
layerId = "C3045851-C262-4F1E-804D-9F76D78DC8BA";
name = Regular;
paths = (
{
closed = 1;
nodes = (
"64 666 OFFCURVE",
"39 360 OFFCURVE",
"64 177 CURVE SMOOTH",
"89 -7 OFFCURVE",
"254 -1 OFFCURVE",
"356 1 CURVE SMOOTH",
"532 4 OFFCURVE",
"669 64 OFFCURVE",
"666 145 CURVE SMOOTH",
"663 212 OFFCURVE",
"511 222 OFFCURVE",
"511 222 CURVE",
"521 381 OFFCURVE",
"490 648 OFFCURVE",
"437 715 CURVE SMOOTH",
"384 782 OFFCURVE",
"238 788 OFFCURVE",
"170 740 CURVE SMOOTH"
);
}
);
width = 721;
}
);
unicode = 004C;
},
{
glyphname = M;
layers = (
{
layerId = "C3045851-C262-4F1E-804D-9F76D78DC8BA";
name = Regular;
paths = (
{
closed = 1;
nodes = (
"585 12 OFFCURVE",
"628 146 OFFCURVE",
"628 146 CURVE",
"636 68 OFFCURVE",
"673 -15 OFFCURVE",
"752 2 CURVE SMOOTH",
"847 23 OFFCURVE",
"895 542 OFFCURVE",
"783 691 CURVE SMOOTH",
"680 827 OFFCURVE",
"520 778 OFFCURVE",
"452 632 CURVE",
"383 778 OFFCURVE",
"223 827 OFFCURVE",
"120 691 CURVE SMOOTH",
"8 542 OFFCURVE",
"56 23 OFFCURVE",
"151 2 CURVE SMOOTH",
"230 -15 OFFCURVE",
"262 68 OFFCURVE",
"270 146 CURVE",
"270 146 OFFCURVE",
"318 12 OFFCURVE",
"452 12 CURVE SMOOTH"
);
}
);
width = 903;
}
);
unicode = 004D;
},
{
glyphname = N;
layers = (
{
layerId = "C3045851-C262-4F1E-804D-9F76D78DC8BA";
name = Regular;
paths = (
{
closed = 1;
nodes = (
"237 -13 OFFCURVE",
"260 60 OFFCURVE",
"270 139 CURVE",
"350 21 OFFCURVE",
"571 -35 OFFCURVE",
"702 24 CURVE SMOOTH",
"860 95 OFFCURVE",
"820 741 OFFCURVE",
"703 751 CURVE SMOOTH",
"626 757 OFFCURVE",
"584 699 OFFCURVE",
"566 604 CURVE",
"399 753 OFFCURVE",
"270 817 OFFCURVE",
"148 736 CURVE SMOOTH",
"20 651 OFFCURVE",
"29 36 OFFCURVE",
"145 9 CURVE SMOOTH"
);
}
);
width = 861;
}
);
unicode = 004E;
},
{
glyphname = O;
layers = (
{
layerId = "C3045851-C262-4F1E-804D-9F76D78DC8BA";
name = Regular;
paths = (
{
closed = 1;
nodes = (
"342 771 OFFCURVE",
"233 729 OFFCURVE",
"159 643 CURVE SMOOTH",
"-1 456 OFFCURVE",
"-22 0 OFFCURVE",
"433 0 CURVE SMOOTH",
"888 0 OFFCURVE",
"867 456 OFFCURVE",
"707 643 CURVE SMOOTH",
"633 729 OFFCURVE",
"524 771 OFFCURVE",
"433 771 CURVE SMOOTH"
);
},
{
closed = 1;
nodes = (
"528 476 OFFCURVE",
"533 376 OFFCURVE",
"433 376 CURVE SMOOTH",
"333 376 OFFCURVE",
"338 476 OFFCURVE",
"373 516 CURVE SMOOTH",
"389 535 OFFCURVE",
"413 544 OFFCURVE",
"433 544 CURVE SMOOTH",
"453 544 OFFCURVE",
"477 535 OFFCURVE",
"493 516 CURVE SMOOTH"
);
}
);
width = 865;
}
);
unicode = 004F;
},
{
glyphname = P;
layers = (
{
layerId = "C3045851-C262-4F1E-804D-9F76D78DC8BA";
name = Regular;
paths = (
{
closed = 1;
nodes = (
"433 17 OFFCURVE",
"480 108 OFFCURVE",
"480 209 CURVE",
"553 219 OFFCURVE",
"721 262 OFFCURVE",
"721 466 CURVE SMOOTH",
"721 650 OFFCURVE",
"543 771 OFFCURVE",
"331 771 CURVE SMOOTH",
"192 771 OFFCURVE",
"71 763 OFFCURVE",
"58 705 CURVE SMOOTH",
"41 634 OFFCURVE",
"106 624 OFFCURVE",
"106 624 CURVE",
"96 487 OFFCURVE",
"87 276 OFFCURVE",
"102 176 CURVE",
"78 156 OFFCURVE",
"53 139 OFFCURVE",
"64 84 CURVE SMOOTH",
"78 16 OFFCURVE",
"175 -9 OFFCURVE",
"287 3 CURVE SMOOTH"
);
},
{
closed = 1;
nodes = (
"487 503 OFFCURVE",
"536 471 OFFCURVE",
"541 435 CURVE SMOOTH",
"546 389 OFFCURVE",
"518 343 OFFCURVE",
"466 341 CURVE",
"461 387 OFFCURVE",
"455 462 OFFCURVE",
"453 498 CURVE"
);
}
);
width = 776;
}
);
unicode = 0050;
},
{
glyphname = Q;
layers = (
{
layerId = "C3045851-C262-4F1E-804D-9F76D78DC8BA";
name = Regular;
paths = (
{
closed = 1;
nodes = (
"861 408 OFFCURVE",
"836 771 OFFCURVE",
"431 771 CURVE SMOOTH",
"-22 771 OFFCURVE",
"-1 318 OFFCURVE",
"158 132 CURVE SMOOTH",
"232 46 OFFCURVE",
"340 5 OFFCURVE",
"431 5 CURVE SMOOTH",
"488 5 OFFCURVE",
"553 22 OFFCURVE",
"611 56 CURVE",
"646 22 OFFCURVE",
"684 -4 OFFCURVE",
"714 0 CURVE SMOOTH",
"774 8 OFFCURVE",
"814 71 OFFCURVE",
"811 124 CURVE SMOOTH",
"810 146 OFFCURVE",
"782 174 OFFCURVE",
"748 198 CURVE"
);
},
{
closed = 1;
nodes = (
"476 231 OFFCURVE",
"453 222 OFFCURVE",
"434 222 CURVE SMOOTH",
"416 222 OFFCURVE",
"393 231 OFFCURVE",
"378 249 CURVE SMOOTH",
"345 287 OFFCURVE",
"340 382 OFFCURVE",
"434 382 CURVE SMOOTH",
"528 382 OFFCURVE",
"524 287 OFFCURVE",
"491 249 CURVE SMOOTH"
);
}
);
width = 867;
}
);
unicode = 0051;
},
{
glyphname = R;
layers = (
{
layerId = "C3045851-C262-4F1E-804D-9F76D78DC8BA";
name = Regular;
paths = (
{
closed = 1;
nodes = (
"690 302 OFFCURVE",
"754 371 OFFCURVE",
"754 485 CURVE SMOOTH",
"754 670 OFFCURVE",
"543 771 OFFCURVE",
"331 771 CURVE SMOOTH",
"192 771 OFFCURVE",
"71 763 OFFCURVE",
"58 705 CURVE SMOOTH",
"41 634 OFFCURVE",
"106 624 OFFCURVE",
"106 624 CURVE",
"96 487 OFFCURVE",
"87 276 OFFCURVE",
"102 176 CURVE",
"78 156 OFFCURVE",
"53 139 OFFCURVE",
"64 84 CURVE SMOOTH",
"78 16 OFFCURVE",
"175 -9 OFFCURVE",
"287 3 CURVE SMOOTH",
"409 15 OFFCURVE",
"462 80 OFFCURVE",
"476 160 CURVE",
"525 94 OFFCURVE",
"609 6 OFFCURVE",
"657 12 CURVE SMOOTH",
"717 20 OFFCURVE",
"769 82 OFFCURVE",
"766 134 CURVE SMOOTH",
"764 173 OFFCURVE",
"681 238 OFFCURVE",
"631 267 CURVE"
);
},
{
closed = 1;
nodes = (
"552 393 OFFCURVE",
"522 344 OFFCURVE",
"466 343 CURVE",
"462 391 OFFCURVE",
"455 471 OFFCURVE",
"453 510 CURVE",
"490 515 OFFCURVE",
"542 481 OFFCURVE",
"546 442 CURVE SMOOTH"
);
}
);
width = 821;
}
);
unicode = 0052;
},
{
glyphname = S;
layers = (
{
layerId = "C3045851-C262-4F1E-804D-9F76D78DC8BA";
name = Regular;
paths = (
{
closed = 1;
nodes = (
"104 707 OFFCURVE",
"60 647 OFFCURVE",
"56 558 CURVE SMOOTH",
"52 470 OFFCURVE",
"59 346 OFFCURVE",
"232 223 CURVE",
"141 205 OFFCURVE",
"64 187 OFFCURVE",
"59 131 CURVE SMOOTH",
"52 52 OFFCURVE",
"144 0 OFFCURVE",
"398 0 CURVE SMOOTH",
"614 0 OFFCURVE",
"745 85 OFFCURVE",
"745 290 CURVE SMOOTH",
"745 495 OFFCURVE",
"515 587 OFFCURVE",
"515 587 CURVE",
"621 608 OFFCURVE",
"677 632 OFFCURVE",
"663 689 CURVE SMOOTH",
"643 770 OFFCURVE",
"346 802 OFFCURVE",
"176 735 CURVE SMOOTH"
);
}
);
width = 799;
}
);
unicode = 0053;
},
{
glyphname = T;
layers = (
{
layerId = "C3045851-C262-4F1E-804D-9F76D78DC8BA";
name = Regular;
paths = (
{
closed = 1;
nodes = (
"765 771 OFFCURVE",
"606 771 OFFCURVE",
"410 771 CURVE SMOOTH",
"214 771 OFFCURVE",
"55 751 OFFCURVE",
"55 484 CURVE SMOOTH",
"55 276 OFFCURVE",
"151 217 OFFCURVE",
"286 202 CURVE",
"284 186 OFFCURVE",
"282 170 OFFCURVE",
"282 153 CURVE SMOOTH",
"282 39 OFFCURVE",
"340 0 OFFCURVE",
"410 0 CURVE SMOOTH",
"481 0 OFFCURVE",
"538 39 OFFCURVE",
"538 153 CURVE SMOOTH",
"538 169 OFFCURVE",
"537 184 OFFCURVE",
"535 199 CURVE",
"669 210 OFFCURVE",
"765 260 OFFCURVE",
"765 484 CURVE SMOOTH"
);
}
);
width = 820;
}
);
unicode = 0054;
},
{
glyphname = U;
layers = (
{
layerId = "C3045851-C262-4F1E-804D-9F76D78DC8BA";
name = Regular;
paths = (
{
closed = 1;
nodes = (
"345 732 OFFCURVE",
"309 771 OFFCURVE",
"263 771 CURVE SMOOTH",
"194 771 OFFCURVE",
"69 629 OFFCURVE",
"56 388 CURVE SMOOTH",
"43 150 OFFCURVE",
"203 0 OFFCURVE",
"417 0 CURVE SMOOTH",
"630 0 OFFCURVE",
"790 150 OFFCURVE",
"777 388 CURVE SMOOTH",
"764 629 OFFCURVE",
"639 771 OFFCURVE",
"570 771 CURVE SMOOTH",
"524 771 OFFCURVE",
"489 732 OFFCURVE",
"486 653 CURVE",
"440 672 OFFCURVE",
"393 672 OFFCURVE",
"347 653 CURVE"
);
}
);
width = 833;
}
);
unicode = 0055;
},
{
glyphname = V;
lastChange = "2023-03-06 21:17:25 +0000";
layers = (
{
layerId = "C3045851-C262-4F1E-804D-9F76D78DC8BA";
name = Regular;
paths = (
{
closed = 1;
nodes = (
"650 0 OFFCURVE",
"818 525 OFFCURVE",
"818 620 CURVE SMOOTH",
"818 715 OFFCURVE",
"724 771 OFFCURVE",
"629 771 CURVE SMOOTH",
"534 771 OFFCURVE",
"437 672 OFFCURVE",
"437 672 CURVE",
"437 672 OFFCURVE",
"339 771 OFFCURVE",
"244 771 CURVE SMOOTH",
"149 771 OFFCURVE",
"55 715 OFFCURVE",
"55 620 CURVE SMOOTH",
"55 525 OFFCURVE",
"224 0 OFFCURVE",
"437 0 CURVE SMOOTH"
);
}
);
width = 873;
}
);
unicode = 0056;
},
{
glyphname = W;
layers = (
{
layerId = "C3045851-C262-4F1E-804D-9F76D78DC8BA";
name = Regular;
paths = (
{
closed = 1;
nodes = (
"331 754 OFFCURVE",
"269 584 OFFCURVE",
"269 584 CURVE",
"251 681 OFFCURVE",
"217 792 OFFCURVE",
"119 768 CURVE SMOOTH",
"5 739 OFFCURVE",
"54 181 OFFCURVE",
"184 60 CURVE SMOOTH",
"293 -41 OFFCURVE",
"436 -6 OFFCURVE",
"499 106 CURVE",
"563 -6 OFFCURVE",
"706 -41 OFFCURVE",
"814 60 CURVE SMOOTH",
"945 181 OFFCURVE",
"994 739 OFFCURVE",
"879 768 CURVE SMOOTH",
"782 792 OFFCURVE",
"748 681 OFFCURVE",
"729 584 CURVE",
"729 584 OFFCURVE",
"667 754 OFFCURVE",
"499 754 CURVE SMOOTH"
);
}
);
width = 999;
}
);
unicode = 0057;
},
{
glyphname = X;
layers = (
{
layerId = "C3045851-C262-4F1E-804D-9F76D78DC8BA";
name = Regular;
paths = (
{
closed = 1;
nodes = (
"701 571 OFFCURVE",
"730 615 OFFCURVE",
"737 628 CURVE SMOOTH",
"776 699 OFFCURVE",
"743 751 OFFCURVE",
"659 752 CURVE SMOOTH",
"630 753 OFFCURVE",
"571 709 OFFCURVE",
"501 643 CURVE",
"406 715 OFFCURVE",
"322 767 OFFCURVE",
"292 770 CURVE SMOOTH",
"197 781 OFFCURVE",
"76 689 OFFCURVE",
"57 601 CURVE SMOOTH",
"43 532 OFFCURVE",
"110 420 OFFCURVE",
"201 311 CURVE",
"137 230 OFFCURVE",
"91 160 OFFCURVE",
"83 126 CURVE SMOOTH",
"61 38 OFFCURVE",
"139 -8 OFFCURVE",
"200 1 CURVE SMOOTH",
"234 6 OFFCURVE",
"295 63 OFFCURVE",
"364 140 CURVE",
"409 99 OFFCURVE",
"451 64 OFFCURVE",
"488 39 CURVE SMOOTH",
"652 -77 OFFCURVE",
"841 122 OFFCURVE",
"860 227 CURVE SMOOTH",
"872 292 OFFCURVE",
"776 406 OFFCURVE",
"659 513 CURVE"
);
}
);
width = 916;
}
);
unicode = 0058;
},
{
glyphname = Y;
layers = (
{
layerId = "C3045851-C262-4F1E-804D-9F76D78DC8BA";
name = Regular;
paths = (
{
closed = 1;
nodes = (
"187 293 OFFCURVE",
"214 285 OFFCURVE",
"295 271 CURVE",
"230 247 OFFCURVE",
"84 276 OFFCURVE",
"80 176 CURVE SMOOTH",
"78 109 OFFCURVE",
"172 17 OFFCURVE",
"335 3 CURVE SMOOTH",
"489 -9 OFFCURVE",
"627 7 OFFCURVE",
"739 131 CURVE SMOOTH",
"881 288 OFFCURVE",
"831 629 OFFCURVE",
"757 709 CURVE SMOOTH",
"682 791 OFFCURVE",
"477 783 OFFCURVE",
"403 737 CURVE SMOOTH",
"358 708 OFFCURVE",
"314 670 OFFCURVE",
"279 624 CURVE",
"223 748 OFFCURVE",
"172 747 OFFCURVE",
"122 729 CURVE SMOOTH",
"24 694 OFFCURVE",
"36 434 OFFCURVE",
"144 333 CURVE SMOOTH"
);
}
);
width = 884;
}
);
unicode = 0059;
},
{
glyphname = Z;
layers = (
{
layerId = "C3045851-C262-4F1E-804D-9F76D78DC8BA";
name = Regular;
paths = (
{
closed = 1;
nodes = (
"273 771 OFFCURVE",
"87 735 OFFCURVE",
"87 678 CURVE SMOOTH",
"87 610 OFFCURVE",
"176 577 OFFCURVE",
"271 577 CURVE",
"271 577 OFFCURVE",
"55 296 OFFCURVE",
"55 157 CURVE SMOOTH",
"55 18 OFFCURVE",
"237 0 OFFCURVE",
"386 0 CURVE SMOOTH",
"636 0 OFFCURVE",
"751 51 OFFCURVE",
"744 129 CURVE SMOOTH",
"740 184 OFFCURVE",
"628 219 OFFCURVE",
"549 219 CURVE",
"661 340 OFFCURVE",
"723 508 OFFCURVE",
"723 657 CURVE SMOOTH",
"723 752 OFFCURVE",
"544 771 OFFCURVE",
"417 771 CURVE SMOOTH"
);
}
);
width = 799;
}
);
unicode = 005A;
},
{
glyphname = a;
layers = (
{
layerId = "C3045851-C262-4F1E-804D-9F76D78DC8BA";
name = Regular;
paths = (
{
closed = 1;
nodes = (
"196 544 OFFCURVE",
"91 485 OFFCURVE",
"91 454 CURVE SMOOTH",
"91 422 OFFCURVE",
"106 402 OFFCURVE",
"128 394 CURVE",
"81 335 OFFCURVE",
"55 272 OFFCURVE",
"55 214 CURVE SMOOTH",
"55 129 OFFCURVE",
"88 12 OFFCURVE",
"257 12 CURVE SMOOTH",
"426 12 OFFCURVE",
"487 80 OFFCURVE",
"487 80 CURVE",
"494 46 OFFCURVE",
"541 15 OFFCURVE",
"571 15 CURVE SMOOTH",
"642 15 OFFCURVE",
"646 166 OFFCURVE",
"646 289 CURVE SMOOTH",
"646 442 OFFCURVE",
"502 544 OFFCURVE",
"360 544 CURVE SMOOTH"
);
},
{
closed = 1;
nodes = (
"366 387 OFFCURVE",
"414 351 OFFCURVE",
"423 298 CURVE",
"369 247 OFFCURVE",
"304 325 OFFCURVE",
"318 380 CURVE"
);
}
);
width = 701;
}
);
unicode = 0061;
},
{
glyphname = b;
lastChange = "2023-03-06 21:17:25 +0000";
layers = (
{
layerId = "C3045851-C262-4F1E-804D-9F76D78DC8BA";
name = Regular;
paths = (
{
closed = 1;
nodes = (
"393 622 OFFCURVE",
"359 770 OFFCURVE",
"211 770 CURVE SMOOTH",
"75 770 OFFCURVE",
"55 739 OFFCURVE",
"55 699 CURVE SMOOTH",
"55 657 OFFCURVE",
"97 630 OFFCURVE",
"97 630 CURVE",
"97 630 OFFCURVE",
"64 442 OFFCURVE",
"64 335 CURVE SMOOTH",
"64 228 OFFCURVE",
"97 12 OFFCURVE",
"374 12 CURVE SMOOTH",
"512 12 OFFCURVE",
"643 97 OFFCURVE",
"643 285 CURVE SMOOTH",
"643 427 OFFCURVE",
"563 521 OFFCURVE",
"398 511 CURVE"
);
},
{
closed = 1;
nodes = (
"391 267 LINE",
"395 330 OFFCURVE",
"397 387 OFFCURVE",
"398 430 CURVE",
"441 428 OFFCURVE",
"476 392 OFFCURVE",
"476 349 CURVE SMOOTH",
"476 304 OFFCURVE",
"439 267 OFFCURVE",
"394 267 CURVE SMOOTH"
);
}
);
width = 698;
}
);
unicode = 0062;
},
{
glyphname = c;
lastChange = "2018-09-24 19:17:06 +0000";
layers = (
{
layerId = "C3045851-C262-4F1E-804D-9F76D78DC8BA";
name = Regular;
paths = (
{
closed = 1;
nodes = (
"463 200 OFFCURVE",
"465 352 OFFCURVE",
"451 408 CURVE",
"491 408 OFFCURVE",
"517 434 OFFCURVE",
"517 474 CURVE SMOOTH",
"517 543 OFFCURVE",
"377 575 OFFCURVE",
"307 575 CURVE SMOOTH",
"122 575 OFFCURVE",
"15 470 OFFCURVE",
"15 281 CURVE SMOOTH",
"15 93 OFFCURVE",
"122 -7 OFFCURVE",
"307 -7 CURVE SMOOTH",
"376 -7 OFFCURVE",
"520 28 OFFCURVE",
"520 104 CURVE SMOOTH",
"520 137 OFFCURVE",
"491 167 OFFCURVE",
"451 167 CURVE"
);
}
);
width = 535;
}
);
unicode = 0063;
},
{
glyphname = d;
lastChange = "2023-03-06 21:17:25 +0000";
layers = (
{
layerId = "C3045851-C262-4F1E-804D-9F76D78DC8BA";
name = Regular;
paths = (
{
closed = 1;
nodes = (
"633 739 OFFCURVE",
"613 770 OFFCURVE",
"477 770 CURVE SMOOTH",
"329 770 OFFCURVE",
"295 622 OFFCURVE",
"290 511 CURVE",
"125 521 OFFCURVE",
"55 427 OFFCURVE",
"55 285 CURVE SMOOTH",
"55 97 OFFCURVE",
"176 12 OFFCURVE",
"314 12 CURVE SMOOTH",
"590 12 OFFCURVE",
"624 228 OFFCURVE",
"624 335 CURVE SMOOTH",
"624 442 OFFCURVE",
"590 630 OFFCURVE",
"590 630 CURVE",
"590 630 OFFCURVE",
"633 657 OFFCURVE",
"633 699 CURVE SMOOTH"
);
},
{
closed = 1;
nodes = (
"249 267 OFFCURVE",
"212 303 OFFCURVE",
"212 349 CURVE SMOOTH",
"212 392 OFFCURVE",
"247 428 OFFCURVE",
"290 430 CURVE",
"291 387 OFFCURVE",
"293 330 OFFCURVE",
"297 267 CURVE",
"294 267 LINE SMOOTH"
);
}
);
width = 688;
}
);
unicode = 0064;
},
{
glyphname = e;
lastChange = "2023-03-06 21:17:25 +0000";
layers = (
{
layerId = "C3045851-C262-4F1E-804D-9F76D78DC8BA";
name = Regular;
paths = (
{
closed = 1;
nodes = (
"525 139 OFFCURVE",
"580 192 OFFCURVE",
"580 323 CURVE SMOOTH",
"580 473 OFFCURVE",
"465 529 OFFCURVE",
"343 529 CURVE SMOOTH",
"160 529 OFFCURVE",
"55 438 OFFCURVE",
"55 258 CURVE SMOOTH",
"55 78 OFFCURVE",
"160 -13 OFFCURVE",
"343 -13 CURVE SMOOTH",
"453 -13 OFFCURVE",
"580 23 OFFCURVE",
"580 80 CURVE SMOOTH",
"580 110 OFFCURVE",
"557 125 OFFCURVE",
"525 139 CURVE"
);
},
{
closed = 1;
nodes = (
"285 189 OFFCURVE",
"230 318 OFFCURVE",
"291 318 CURVE SMOOTH",
"361 318 OFFCURVE",
"370 220 OFFCURVE",
"340 181 CURVE"
);
}
);
width = 635;
}
);
unicode = 0065;
},
{
glyphname = f;
lastChange = "2023-03-06 21:17:25 +0000";
layers = (
{
layerId = "C3045851-C262-4F1E-804D-9F76D78DC8BA";
name = Regular;
paths = (
{
closed = 1;
nodes = (
"499 251 OFFCURVE",
"469 263 OFFCURVE",
"424 270 CURVE",
"415 344 OFFCURVE",
"404 408 OFFCURVE",
"404 408 CURVE",
"404 408 OFFCURVE",
"472 434 OFFCURVE",
"472 477 CURVE SMOOTH",
"472 517 OFFCURVE",
"426 548 OFFCURVE",
"290 548 CURVE SMOOTH",
"162 548 OFFCURVE",
"91 399 OFFCURVE",
"86 289 CURVE SMOOTH",
"86 177 OFFCURVE",
"97 66 OFFCURVE",
"118 -10 CURVE",
"73 -34 OFFCURVE",
"55 -68 OFFCURVE",
"55 -104 CURVE SMOOTH",
"55 -139 OFFCURVE",
"90 -191 OFFCURVE",
"153 -191 CURVE SMOOTH",
"372 -191 OFFCURVE",
"437 -59 OFFCURVE",
"437 113 CURVE SMOOTH",
"437 125 OFFCURVE",
"437 137 OFFCURVE",
"436 150 CURVE",
"474 157 OFFCURVE",
"499 171 OFFCURVE",
"499 209 CURVE SMOOTH"
);
}
);
width = 555;
}
);
unicode = 0066;
},
{
glyphname = g;
lastChange = "2018-07-09 14:16:12 +0000";
layers = (
{
layerId = "C3045851-C262-4F1E-804D-9F76D78DC8BA";
name = Regular;
paths = (
{
closed = 1;
nodes = (
"233 63 OFFCURVE",
"180 90 OFFCURVE",
"173 119 CURVE",
"207 106 OFFCURVE",
"249 99 OFFCURVE",
"296 99 CURVE SMOOTH",
"448 99 OFFCURVE",
"549 181 OFFCURVE",
"549 309 CURVE SMOOTH",
"549 365 OFFCURVE",
"533 410 OFFCURVE",
"506 446 CURVE",
"531 485 OFFCURVE",
"541 516 OFFCURVE",
"508 545 CURVE SMOOTH",
"473 577 OFFCURVE",
"440 558 OFFCURVE",
"400 523 CURVE",
"398 522 OFFCURVE",
"396 520 OFFCURVE",
"394 518 CURVE",
"365 526 OFFCURVE",
"332 531 OFFCURVE",
"296 531 CURVE SMOOTH",
"143 531 OFFCURVE",
"55 452 OFFCURVE",
"55 309 CURVE SMOOTH",
"55 237 OFFCURVE",
"78 184 OFFCURVE",
"120 149 CURVE",
"96 115 OFFCURVE",
"112 64 OFFCURVE",
"138 46 CURVE",
"103 35 OFFCURVE",
"58 -18 OFFCURVE",
"58 -68 CURVE SMOOTH",
"58 -159 OFFCURVE",
"102 -255 OFFCURVE",
"296 -255 CURVE SMOOTH",
"524 -255 OFFCURVE",
"566 -168 OFFCURVE",
"566 -72 CURVE SMOOTH",
"566 77 OFFCURVE",
"389 63 OFFCURVE",
"303 63 CURVE SMOOTH"
);
},
{
closed = 1;
nodes = (
"329 387 OFFCURVE",
"351 369 OFFCURVE",
"351 331 CURVE SMOOTH",
"351 301 OFFCURVE",
"326 286 OFFCURVE",
"302 286 CURVE SMOOTH",
"277 286 OFFCURVE",
"253 301 OFFCURVE",
"253 331 CURVE SMOOTH",
"253 369 OFFCURVE",
"275 387 OFFCURVE",
"302 387 CURVE SMOOTH"
);
}
);
width = 622;
}
);
unicode = 0067;
},
{
glyphname = h;
lastChange = "2023-03-06 21:17:25 +0000";
layers = (
{
layerId = "C3045851-C262-4F1E-804D-9F76D78DC8BA";
name = Regular;
paths = (
{
closed = 1;
nodes = (
"807 349 OFFCURVE",
"776 523 OFFCURVE",
"655 523 CURVE SMOOTH",
"560 523 OFFCURVE",
"518 509 OFFCURVE",
"462 465 CURVE",
"462 647 OFFCURVE",
"429 795 OFFCURVE",
"306 795 CURVE SMOOTH",
"199 795 OFFCURVE",
"93 765 OFFCURVE",
"93 701 CURVE SMOOTH",
"93 667 OFFCURVE",
"117 621 OFFCURVE",
"143 603 CURVE",
"140 443 OFFCURVE",
"138 166 OFFCURVE",
"138 166 CURVE",
"138 166 OFFCURVE",
"55 153 OFFCURVE",
"55 95 CURVE SMOOTH",
"55 3 OFFCURVE",
"205 -6 OFFCURVE",
"287 -6 CURVE SMOOTH",
"370 -6 OFFCURVE",
"468 1 OFFCURVE",
"468 99 CURVE SMOOTH",
"468 147 OFFCURVE",
"470 245 OFFCURVE",
"467 353 CURVE",
"504 349 LINE",
"504 349 OFFCURVE",
"459 -2 OFFCURVE",
"642 -2 CURVE SMOOTH",
"825 -2 OFFCURVE",
"807 206 OFFCURVE",
"807 278 CURVE SMOOTH"
);
}
);
width = 863;
}
);
unicode = 0068;
},
{
glyphname = i;
layers = (
{
layerId = "C3045851-C262-4F1E-804D-9F76D78DC8BA";
name = Regular;
paths = (
{
closed = 1;
nodes = (
"302 573 OFFCURVE",
"350 594 OFFCURVE",
"350 655 CURVE SMOOTH",
"350 715 OFFCURVE",
"302 737 OFFCURVE",
"242 737 CURVE SMOOTH",
"183 737 OFFCURVE",
"135 719 OFFCURVE",
"135 655 CURVE SMOOTH",
"135 590 OFFCURVE",
"183 573 OFFCURVE",
"242 573 CURVE SMOOTH"
);
},
{
closed = 1;
nodes = (
"412 227 OFFCURVE",
"439 526 OFFCURVE",
"256 526 CURVE SMOOTH",
"120 526 OFFCURVE",
"55 503 OFFCURVE",
"55 441 CURVE SMOOTH",
"55 412 OFFCURVE",
"86 396 OFFCURVE",
"118 387 CURVE",
"100 334 OFFCURVE",
"91 240 OFFCURVE",
"91 204 CURVE SMOOTH",
"91 169 OFFCURVE",
"94 20 OFFCURVE",
"240 4 CURVE SMOOTH",
"383 -12 OFFCURVE",
"488 28 OFFCURVE",
"488 84 CURVE SMOOTH",
"488 115 OFFCURVE",
"459 153 OFFCURVE",
"412 153 CURVE"
);
}
);
width = 542;
}
);
unicode = 0069;
},
{
glyphname = j;
lastChange = "2023-03-06 21:17:25 +0000";
layers = (
{
layerId = "C3045851-C262-4F1E-804D-9F76D78DC8BA";
name = Regular;
paths = (
{
closed = 1;
nodes = (
"353 542 OFFCURVE",
"401 579 OFFCURVE",
"401 624 CURVE SMOOTH",
"401 670 OFFCURVE",
"353 706 OFFCURVE",
"294 706 CURVE SMOOTH",
"235 706 OFFCURVE",
"187 670 OFFCURVE",
"187 624 CURVE SMOOTH",
"187 579 OFFCURVE",
"235 542 OFFCURVE",
"294 542 CURVE SMOOTH"
);
},
{
closed = 1;
nodes = (
"506 459 OFFCURVE",
"464 488 OFFCURVE",
"358 488 CURVE SMOOTH",
"263 488 OFFCURVE",
"138 429 OFFCURVE",
"138 281 CURVE SMOOTH",
"138 162 OFFCURVE",
"168 85 OFFCURVE",
"168 85 CURVE",
"94 85 OFFCURVE",
"55 46 OFFCURVE",
"55 -4 CURVE SMOOTH",
"55 -54 OFFCURVE",
"144 -123 OFFCURVE",
"298 -123 CURVE SMOOTH",
"453 -123 OFFCURVE",
"500 20 OFFCURVE",
"500 126 CURVE SMOOTH",
"500 233 OFFCURVE",
"435 352 OFFCURVE",
"435 352 CURVE",
"490 377 OFFCURVE",
"506 411 OFFCURVE",
"506 435 CURVE SMOOTH"
);
}
);
width = 561;
}
);
unicode = 006A;
},
{
glyphname = k;
layers = (
{
layerId = "C3045851-C262-4F1E-804D-9F76D78DC8BA";
name = Regular;
paths = (
{
closed = 1;
nodes = (
"629 353 OFFCURVE",
"653 400 OFFCURVE",
"653 434 CURVE SMOOTH",
"653 467 OFFCURVE",
"624 524 OFFCURVE",
"556 524 CURVE SMOOTH",
"489 524 OFFCURVE",
"435 457 OFFCURVE",
"405 410 CURVE",
"422 477 OFFCURVE",
"425 584 OFFCURVE",
"415 651 CURVE SMOOTH",
"406 714 OFFCURVE",
"325 768 OFFCURVE",
"245 768 CURVE SMOOTH",
"151 768 OFFCURVE",
"55 735 OFFCURVE",
"55 678 CURVE SMOOTH",
"55 621 OFFCURVE",
"104 604 OFFCURVE",
"131 594 CURVE",
"121 517 OFFCURVE",
"117 394 OFFCURVE",
"117 287 CURVE SMOOTH",
"117 179 OFFCURVE",
"133 5 OFFCURVE",
"261 5 CURVE SMOOTH",
"388 5 OFFCURVE",
"385 99 OFFCURVE",
"385 213 CURVE",
"414 116 OFFCURVE",
"478 1 OFFCURVE",
"573 1 CURVE SMOOTH",
"678 1 OFFCURVE",
"719 78 OFFCURVE",
"719 145 CURVE SMOOTH",
"719 241 OFFCURVE",
"628 297 OFFCURVE",
"562 317 CURVE"
);
}
);
width = 774;
}
);
unicode = 006B;
},
{
glyphname = l;
layers = (
{
layerId = "C3045851-C262-4F1E-804D-9F76D78DC8BA";
name = Regular;
paths = (
{
closed = 1;
nodes = (
"55 633 OFFCURVE",
"69 628 OFFCURVE",
"96 605 CURVE",
"76 539 OFFCURVE",
"56 406 OFFCURVE",
"56 290 CURVE SMOOTH",
"56 143 OFFCURVE",
"131 3 OFFCURVE",
"280 3 CURVE SMOOTH",
"440 3 OFFCURVE",
"491 83 OFFCURVE",
"491 127 CURVE SMOOTH",
"491 168 OFFCURVE",
"449 210 OFFCURVE",
"414 226 CURVE",
"425 270 OFFCURVE",
"439 327 OFFCURVE",
"439 437 CURVE SMOOTH",
"439 585 OFFCURVE",
"432 775 OFFCURVE",
"282 775 CURVE SMOOTH",
"147 775 OFFCURVE",
"55 732 OFFCURVE",
"55 683 CURVE SMOOTH"
);
}
);
width = 546;
}
);
unicode = 006C;
},
{
glyphname = m;
lastChange = "2018-09-24 19:16:48 +0000";
layers = (
{
layerId = "C3045851-C262-4F1E-804D-9F76D78DC8BA";
name = Regular;
paths = (
{
closed = 1;
nodes = (
"725 580 OFFCURVE",
"588 584 OFFCURVE",
"532 482 CURVE",
"511 521 OFFCURVE",
"480 547 OFFCURVE",
"438 547 CURVE SMOOTH",
"398 547 OFFCURVE",
"368 535 OFFCURVE",
"342 493 CURVE",
"314 530 OFFCURVE",
"276 559 OFFCURVE",
"189 559 CURVE SMOOTH",
"102 559 OFFCURVE",
"15 528 OFFCURVE",
"15 481 CURVE SMOOTH",
"15 441 OFFCURVE",
"30 418 OFFCURVE",
"57 402 CURVE",
"49 330 OFFCURVE",
"15 0 OFFCURVE",
"238 0 CURVE SMOOTH",
"293 0 OFFCURVE",
"360 24 OFFCURVE",
"394 101 CURVE",
"412 73 OFFCURVE",
"442 60 OFFCURVE",
"474 60 CURVE SMOOTH",
"506 60 OFFCURVE",
"535 80 OFFCURVE",
"553 108 CURVE",
"580 53 OFFCURVE",
"611 4 OFFCURVE",
"691 4 CURVE SMOOTH",
"781 4 OFFCURVE",
"859 37 OFFCURVE",
"859 201 CURVE SMOOTH",
"859 320 OFFCURVE",
"829 459 OFFCURVE",
"779 517 CURVE SMOOTH"
);
}
);
width = 874;
}
);
unicode = 006D;
},
{
glyphname = n;
lastChange = "2023-03-06 21:17:25 +0000";
layers = (
{
layerId = "C3045851-C262-4F1E-804D-9F76D78DC8BA";
name = Regular;
paths = (
{
closed = 1;
nodes = (
"506 536 OFFCURVE",
"442 481 OFFCURVE",
"401 430 CURVE",
"371 494 OFFCURVE",
"322 536 OFFCURVE",
"241 536 CURVE SMOOTH",
"120 536 OFFCURVE",
"55 496 OFFCURVE",
"55 453 CURVE SMOOTH",
"55 409 OFFCURVE",
"79 408 OFFCURVE",
"97 391 CURVE",
"89 319 OFFCURVE",
"55 1 OFFCURVE",
"278 1 CURVE SMOOTH",
"383 1 OFFCURVE",
"445 59 OFFCURVE",
"445 163 CURVE SMOOTH",
"445 222 OFFCURVE",
"441 293 OFFCURVE",
"425 357 CURVE",
"453 357 OFFCURVE",
"493 356 OFFCURVE",
"493 357 CURVE SMOOTH",
"490 337 OFFCURVE",
"480 282 OFFCURVE",
"480 250 CURVE SMOOTH",
"480 130 OFFCURVE",
"514 1 OFFCURVE",
"654 1 CURVE SMOOTH",
"790 1 OFFCURVE",
"815 126 OFFCURVE",
"815 277 CURVE SMOOTH",
"815 413 OFFCURVE",
"743 536 OFFCURVE",
"622 536 CURVE SMOOTH"
);
}
);
width = 870;
}
);
unicode = 006E;
},
{
glyphname = o;
lastChange = "2018-09-24 19:17:00 +0000";
layers = (
{
layerId = "C3045851-C262-4F1E-804D-9F76D78DC8BA";
name = Regular;
paths = (
{
closed = 1;
nodes = (
"113 549 OFFCURVE",
"15 419 OFFCURVE",
"15 265 CURVE SMOOTH",
"15 111 OFFCURVE",
"130 -7 OFFCURVE",
"296 -7 CURVE SMOOTH",
"462 -7 OFFCURVE",
"577 111 OFFCURVE",
"577 265 CURVE SMOOTH",
"577 419 OFFCURVE",
"479 549 OFFCURVE",
"296 549 CURVE SMOOTH"
);
},
{
closed = 1;
nodes = (
"267 234 OFFCURVE",
"237 253 OFFCURVE",
"237 291 CURVE SMOOTH",
"237 339 OFFCURVE",
"264 362 OFFCURVE",
"296 362 CURVE SMOOTH",
"328 362 OFFCURVE",
"354 339 OFFCURVE",
"354 291 CURVE SMOOTH",
"354 253 OFFCURVE",
"325 234 OFFCURVE",
"296 234 CURVE SMOOTH"
);
}
);
width = 591;
}
);
unicode = 006F;
},
{
glyphname = p;
layers = (
{
layerId = "C3045851-C262-4F1E-804D-9F76D78DC8BA";
name = Regular;
paths = (
{
closed = 1;
nodes = (
"186 529 OFFCURVE",
"64 426 OFFCURVE",
"64 297 CURVE SMOOTH",
"64 138 OFFCURVE",
"90 14 OFFCURVE",
"102 -29 CURVE",
"71 -64 OFFCURVE",
"55 -94 OFFCURVE",
"55 -124 CURVE SMOOTH",
"55 -161 OFFCURVE",
"94 -216 OFFCURVE",
"211 -216 CURVE SMOOTH",
"338 -216 OFFCURVE",
"398 -71 OFFCURVE",
"398 49 CURVE",
"570 49 OFFCURVE",
"643 132 OFFCURVE",
"643 275 CURVE SMOOTH",
"643 463 OFFCURVE",
"489 529 OFFCURVE",
"350 529 CURVE SMOOTH"
);
},
{
closed = 1;
nodes = (
"397 173 OFFCURVE",
"395 230 OFFCURVE",
"391 293 CURVE",
"394 293 LINE SMOOTH",
"439 293 OFFCURVE",
"476 256 OFFCURVE",
"476 211 CURVE SMOOTH",
"476 167 OFFCURVE",
"441 132 OFFCURVE",
"398 130 CURVE"
);
}
);
width = 698;
}
);
unicode = 0070;
},
{
glyphname = q;
lastChange = "2023-03-06 21:17:25 +0000";
layers = (
{
layerId = "C3045851-C262-4F1E-804D-9F76D78DC8BA";
name = Regular;
paths = (
{
closed = 1;
nodes = (
"635 -49 OFFCURVE",
"657 131 OFFCURVE",
"657 282 CURVE SMOOTH",
"657 425 OFFCURVE",
"566 527 OFFCURVE",
"369 527 CURVE SMOOTH",
"190 527 OFFCURVE",
"55 439 OFFCURVE",
"55 287 CURVE SMOOTH",
"55 121 OFFCURVE",
"154 24 OFFCURVE",
"324 15 CURVE",
"332 -109 OFFCURVE",
"405 -218 OFFCURVE",
"528 -218 CURVE SMOOTH",
"632 -218 OFFCURVE",
"684 -169 OFFCURVE",
"684 -127 CURVE SMOOTH",
"684 -85 OFFCURVE",
"635 -49 OFFCURVE",
"635 -49 CURVE"
);
},
{
closed = 1;
nodes = (
"231 272 OFFCURVE",
"277 282 OFFCURVE",
"308 282 CURVE",
"310 219 OFFCURVE",
"313 162 OFFCURVE",
"316 119 CURVE",
"273 117 OFFCURVE",
"231 152 OFFCURVE",
"231 211 CURVE SMOOTH"
);
}
);
width = 739;
}
);
unicode = 0071;
},
{
glyphname = r;
lastChange = "2018-07-11 16:18:00 +0000";
layers = (
{
layerId = "C3045851-C262-4F1E-804D-9F76D78DC8BA";
name = Regular;
paths = (
{
closed = 1;
nodes = (
"614 467 OFFCURVE",
"564 494 OFFCURVE",
"511 492 CURVE SMOOTH",
"454 491 OFFCURVE",
"394 459 OFFCURVE",
"375 443 CURVE",
"366 460 OFFCURVE",
"317 513 OFFCURVE",
"230 513 CURVE SMOOTH",
"143 513 OFFCURVE",
"55 493 OFFCURVE",
"55 430 CURVE SMOOTH",
"55 390 OFFCURVE",
"112 363 OFFCURVE",
"112 363 CURVE",
"85 226 OFFCURVE",
"55 -13 OFFCURVE",
"259 -13 CURVE SMOOTH",
"450 -13 OFFCURVE",
"433 145 OFFCURVE",
"433 209 CURVE SMOOTH",
"433 241 OFFCURVE",
"426 283 OFFCURVE",
"416 325 CURVE",
"439 314 OFFCURVE",
"465 306 OFFCURVE",
"493 306 CURVE SMOOTH",
"586 306 OFFCURVE",
"627 356 OFFCURVE",
"621 413 CURVE SMOOTH"
);
}
);
width = 677;
}
);
unicode = 0072;
},
{
glyphname = s;
layers = (
{
layerId = "C3045851-C262-4F1E-804D-9F76D78DC8BA";
name = Regular;
paths = (
{
closed = 1;
nodes = (
"58 318 OFFCURVE",
"105 255 OFFCURVE",
"173 212 CURVE",
"127 208 OFFCURVE",
"55 182 OFFCURVE",
"55 129 CURVE SMOOTH",
"55 81 OFFCURVE",
"143 -1 OFFCURVE",
"317 -1 CURVE SMOOTH",
"491 -1 OFFCURVE",
"595 86 OFFCURVE",
"595 164 CURVE SMOOTH",
"595 233 OFFCURVE",
"565 291 OFFCURVE",
"455 347 CURVE",
"492 359 OFFCURVE",
"551 397 OFFCURVE",
"551 432 CURVE SMOOTH",
"551 482 OFFCURVE",
"430 537 OFFCURVE",
"317 537 CURVE SMOOTH",
"196 537 OFFCURVE",
"58 473 OFFCURVE",
"58 395 CURVE SMOOTH"
);
}
);
width = 650;
}
);
unicode = 0073;
},
{
glyphname = t;
layers = (
{
layerId = "C3045851-C262-4F1E-804D-9F76D78DC8BA";
name = Regular;
paths = (
{
closed = 1;
nodes = (
"506 231 OFFCURVE",
"493 306 OFFCURVE",
"471 382 CURVE",
"533 395 OFFCURVE",
"545 418 OFFCURVE",
"545 444 CURVE SMOOTH",
"545 476 OFFCURVE",
"527 504 OFFCURVE",
"422 515 CURVE",
"388 585 OFFCURVE",
"347 637 OFFCURVE",
"304 637 CURVE SMOOTH",
"262 637 OFFCURVE",
"222 585 OFFCURVE",
"188 515 CURVE",
"76 505 OFFCURVE",
"55 477 OFFCURVE",
"55 444 CURVE SMOOTH",
"55 417 OFFCURVE",
"70 394 OFFCURVE",
"137 381 CURVE",
"115 305 OFFCURVE",
"101 233 OFFCURVE",
"101 195 CURVE SMOOTH",
"101 95 OFFCURVE",
"141 1 OFFCURVE",
"340 1 CURVE SMOOTH",
"539 1 OFFCURVE",
"606 63 OFFCURVE",
"606 100 CURVE SMOOTH",
"606 137 OFFCURVE",
"586 157 OFFCURVE",
"506 184 CURVE"
);
}
);
width = 661;
}
);
unicode = 0074;
},
{
glyphname = u;
layers = (
{
layerId = "C3045851-C262-4F1E-804D-9F76D78DC8BA";
name = Regular;
paths = (
{
closed = 1;
nodes = (
"766 209 OFFCURVE",
"800 527 OFFCURVE",
"577 527 CURVE SMOOTH",
"517 527 OFFCURVE",
"449 519 OFFCURVE",
"417 420 CURVE SMOOTH",
"400 369 OFFCURVE",
"410 228 OFFCURVE",
"441 123 CURVE",
"418 111 OFFCURVE",
"390 113 OFFCURVE",
"368 137 CURVE SMOOTH",
"330 177 OFFCURVE",
"399 527 OFFCURVE",
"225 527 CURVE SMOOTH",
"114 527 OFFCURVE",
"55 463 OFFCURVE",
"55 323 CURVE SMOOTH",
"55 182 OFFCURVE",
"100 -10 OFFCURVE",
"274 -10 CURVE SMOOTH",
"376 -10 OFFCURVE",
"425 7 OFFCURVE",
"471 48 CURVE",
"477 38 OFFCURVE",
"482 29 OFFCURVE",
"488 22 CURVE SMOOTH",
"554 -55 OFFCURVE",
"792 -23 OFFCURVE",
"800 38 CURVE SMOOTH",
"806 90 OFFCURVE",
"777 115 OFFCURVE",
"758 137 CURVE"
);
}
);
width = 856;
}
);
unicode = 0075;
},
{
glyphname = v;
lastChange = "2018-07-11 16:18:39 +0000";
layers = (
{
layerId = "C3045851-C262-4F1E-804D-9F76D78DC8BA";
name = Regular;
paths = (
{
closed = 1;
nodes = (
"458 526 OFFCURVE",
"419 473 OFFCURVE",
"383 419 CURVE",
"351 471 OFFCURVE",
"309 526 OFFCURVE",
"189 526 CURVE SMOOTH",
"70 526 OFFCURVE",
"7 494 OFFCURVE",
"7 451 CURVE SMOOTH",
"7 414 OFFCURVE",
"33 377 OFFCURVE",
"72 362 CURVE",
"110 250 OFFCURVE",
"254 1 OFFCURVE",
"383 1 CURVE SMOOTH",
"513 1 OFFCURVE",
"657 250 OFFCURVE",
"694 362 CURVE",
"733 377 OFFCURVE",
"759 414 OFFCURVE",
"759 451 CURVE SMOOTH",
"759 494 OFFCURVE",
"697 526 OFFCURVE",
"577 526 CURVE SMOOTH"
);
}
);
width = 771;
}
);
unicode = 0076;
},
{
glyphname = w;
layers = (
{
layerId = "C3045851-C262-4F1E-804D-9F76D78DC8BA";
name = Regular;
paths = (
{
closed = 1;
nodes = (
"605 524 OFFCURVE",
"554 428 OFFCURVE",
"535 363 CURVE",
"518 397 OFFCURVE",
"488 417 OFFCURVE",
"452 417 CURVE SMOOTH",
"417 417 OFFCURVE",
"386 397 OFFCURVE",
"369 363 CURVE",
"350 428 OFFCURVE",
"299 524 OFFCURVE",
"208 524 CURVE SMOOTH",
"117 524 OFFCURVE",
"55 479 OFFCURVE",
"55 449 CURVE SMOOTH",
"55 411 OFFCURVE",
"84 396 OFFCURVE",
"134 380 CURVE",
"141 244 OFFCURVE",
"219 8 OFFCURVE",
"338 8 CURVE SMOOTH",
"387 8 OFFCURVE",
"420 30 OFFCURVE",
"452 103 CURVE",
"484 30 OFFCURVE",
"517 8 OFFCURVE",
"566 8 CURVE SMOOTH",
"685 8 OFFCURVE",
"763 244 OFFCURVE",
"770 380 CURVE",
"820 396 OFFCURVE",
"849 411 OFFCURVE",
"849 449 CURVE SMOOTH",
"849 479 OFFCURVE",
"787 524 OFFCURVE",
"696 524 CURVE SMOOTH"
);
}
);
width = 904;
}
);
unicode = 0077;
},
{
glyphname = x;
layers = (
{
layerId = "C3045851-C262-4F1E-804D-9F76D78DC8BA";
name = Regular;
paths = (
{
closed = 1;
nodes = (
"579 352 OFFCURVE",
"652 415 OFFCURVE",
"652 455 CURVE SMOOTH",
"652 494 OFFCURVE",
"619 521 OFFCURVE",
"572 521 CURVE SMOOTH",
"525 521 OFFCURVE",
"432 439 OFFCURVE",
"398 402 CURVE",
"356 446 OFFCURVE",
"259 528 OFFCURVE",
"179 528 CURVE SMOOTH",
"102 528 OFFCURVE",
"55 476 OFFCURVE",
"55 425 CURVE SMOOTH",
"55 366 OFFCURVE",
"137 297 OFFCURVE",
"192 265 CURVE",
"149 228 OFFCURVE",
"65 166 OFFCURVE",
"65 121 CURVE SMOOTH",
"65 64 OFFCURVE",
"114 8 OFFCURVE",
"189 8 CURVE SMOOTH",
"264 8 OFFCURVE",
"296 63 OFFCURVE",
"348 114 CURVE",
"398 64 OFFCURVE",
"483 8 OFFCURVE",
"554 8 CURVE SMOOTH",
"631 8 OFFCURVE",
"704 79 OFFCURVE",
"704 144 CURVE SMOOTH",
"704 211 OFFCURVE",
"617 276 OFFCURVE",
"543 323 CURVE"
);
}
);
width = 760;
}
);
unicode = 0078;
},
{
glyphname = y;
lastChange = "2023-03-06 21:17:25 +0000";
layers = (
{
layerId = "C3045851-C262-4F1E-804D-9F76D78DC8BA";
name = Regular;
paths = (
{
closed = 1;
nodes = (
"489 502 OFFCURVE",
"424 427 OFFCURVE",
"402 383 CURVE",
"384 423 OFFCURVE",
"334 502 OFFCURVE",
"232 502 CURVE SMOOTH",
"131 502 OFFCURVE",
"56 485 OFFCURVE",
"56 452 CURVE SMOOTH",
"56 428 OFFCURVE",
"79 405 OFFCURVE",
"128 392 CURVE",
"100 279 OFFCURVE",
"153 76 OFFCURVE",
"289 51 CURVE",
"178 44 OFFCURVE",
"126 33 OFFCURVE",
"126 -12 CURVE SMOOTH",
"126 -59 OFFCURVE",
"181 -97 OFFCURVE",
"373 -97 CURVE SMOOTH",
"608 -97 OFFCURVE",
"720 153 OFFCURVE",
"720 295 CURVE SMOOTH",
"720 437 OFFCURVE",
"662 502 OFFCURVE",
"583 502 CURVE SMOOTH"
);
}
);
width = 734;
}
);
unicode = 0079;
},
{
glyphname = z;
layers = (
{
layerId = "C3045851-C262-4F1E-804D-9F76D78DC8BA";
name = Regular;
paths = (
{
closed = 1;
nodes = (
"549 235 OFFCURVE",
"623 323 OFFCURVE",
"623 427 CURVE SMOOTH",
"623 510 OFFCURVE",
"462 530 OFFCURVE",
"374 530 CURVE SMOOTH",
"274 530 OFFCURVE",
"83 520 OFFCURVE",
"83 460 CURVE SMOOTH",
"83 411 OFFCURVE",
"158 386 OFFCURVE",
"205 378 CURVE",
"148 336 OFFCURVE",
"55 250 OFFCURVE",
"55 155 CURVE SMOOTH",
"55 43 OFFCURVE",
"232 11 OFFCURVE",
"335 11 CURVE SMOOTH",
"510 11 OFFCURVE",
"640 40 OFFCURVE",
"640 91 CURVE SMOOTH",
"640 141 OFFCURVE",
"521 164 OFFCURVE",
"466 164 CURVE"
);
}
);
width = 696;
}
);
unicode = 007A;
},
{
glyphname = zero;
layers = (
{
layerId = "C3045851-C262-4F1E-804D-9F76D78DC8BA";
name = Regular;
paths = (
{
closed = 1;
nodes = (
"148 749 OFFCURVE",
"55 582 OFFCURVE",
"55 375 CURVE SMOOTH",
"55 168 OFFCURVE",
"148 0 OFFCURVE",
"383 0 CURVE SMOOTH",
"617 0 OFFCURVE",
"710 168 OFFCURVE",
"710 375 CURVE SMOOTH",
"710 582 OFFCURVE",
"617 749 OFFCURVE",
"383 749 CURVE SMOOTH"
);
},
{
closed = 1;
nodes = (
"341 378 OFFCURVE",
"307 402 OFFCURVE",
"307 431 CURVE SMOOTH",
"307 468 OFFCURVE",
"329 507 OFFCURVE",
"383 507 CURVE SMOOTH",
"436 507 OFFCURVE",
"458 468 OFFCURVE",
"458 431 CURVE SMOOTH",
"458 402 OFFCURVE",
"425 378 OFFCURVE",
"383 378 CURVE SMOOTH"
);
}
);
width = 765;
}
);
unicode = 0030;
},
{
glyphname = one;
layers = (
{
layerId = "C3045851-C262-4F1E-804D-9F76D78DC8BA";
name = Regular;
paths = (
{
closed = 1;
nodes = (
"579 256 OFFCURVE",
"599 575 OFFCURVE",
"568 654 CURVE SMOOTH",
"536 733 OFFCURVE",
"437 749 OFFCURVE",
"308 749 CURVE SMOOTH",
"180 749 OFFCURVE",
"55 694 OFFCURVE",
"55 633 CURVE SMOOTH",
"55 582 OFFCURVE",
"78 541 OFFCURVE",
"110 524 CURVE",
"96 406 OFFCURVE",
"107 215 OFFCURVE",
"112 157 CURVE",
"81 145 OFFCURVE",
"55 120 OFFCURVE",
"55 91 CURVE SMOOTH",
"55 49 OFFCURVE",
"108 0 OFFCURVE",
"328 0 CURVE SMOOTH",
"548 0 OFFCURVE",
"618 40 OFFCURVE",
"618 91 CURVE SMOOTH",
"618 120 OFFCURVE",
"601 141 OFFCURVE",
"571 162 CURVE"
);
}
);
width = 674;
}
);
unicode = 0031;
},
{
glyphname = two;
layers = (
{
layerId = "C3045851-C262-4F1E-804D-9F76D78DC8BA";
name = Regular;
paths = (
{
closed = 1;
nodes = (
"610 260 OFFCURVE",
"668 328 OFFCURVE",
"668 470 CURVE SMOOTH",
"668 612 OFFCURVE",
"546 749 OFFCURVE",
"368 749 CURVE SMOOTH",
"190 749 OFFCURVE",
"92 687 OFFCURVE",
"92 630 CURVE SMOOTH",
"92 574 OFFCURVE",
"162 522 OFFCURVE",
"223 522 CURVE",
"117 451 OFFCURVE",
"55 309 OFFCURVE",
"55 167 CURVE SMOOTH",
"55 48 OFFCURVE",
"188 0 OFFCURVE",
"368 0 CURVE SMOOTH",
"561 0 OFFCURVE",
"668 53 OFFCURVE",
"668 124 CURVE SMOOTH",
"668 187 OFFCURVE",
"623 197 OFFCURVE",
"583 213 CURVE"
);
}
);
width = 723;
}
);
unicode = 0032;
},
{
glyphname = three;
layers = (
{
layerId = "C3045851-C262-4F1E-804D-9F76D78DC8BA";
name = Regular;
paths = (
{
closed = 1;
nodes = (
"615 434 OFFCURVE",
"657 486 OFFCURVE",
"657 574 CURVE SMOOTH",
"657 702 OFFCURVE",
"471 750 OFFCURVE",
"350 750 CURVE SMOOTH",
"229 750 OFFCURVE",
"80 709 OFFCURVE",
"80 634 CURVE SMOOTH",
"80 582 OFFCURVE",
"140 558 OFFCURVE",
"208 545 CURVE",
"69 454 OFFCURVE",
"71 325 OFFCURVE",
"200 222 CURVE",
"134 222 OFFCURVE",
"55 175 OFFCURVE",
"55 111 CURVE SMOOTH",
"55 40 OFFCURVE",
"182 0 OFFCURVE",
"394 0 CURVE SMOOTH",
"649 0 OFFCURVE",
"674 180 OFFCURVE",
"674 246 CURVE SMOOTH",
"674 314 OFFCURVE",
"647 378 OFFCURVE",
"565 408 CURVE"
);
}
);
width = 730;
}
);
unicode = 0033;
},
{
glyphname = four;
layers = (
{
layerId = "C3045851-C262-4F1E-804D-9F76D78DC8BA";
name = Regular;
paths = (
{
closed = 1;
nodes = (
"714 736 OFFCURVE",
"583 749 OFFCURVE",
"544 749 CURVE SMOOTH",
"484 749 OFFCURVE",
"449 685 OFFCURVE",
"451 631 CURVE",
"425 635 OFFCURVE",
"348 635 OFFCURVE",
"330 632 CURVE",
"336 665 OFFCURVE",
"336 742 OFFCURVE",
"281 746 CURVE SMOOTH",
"189 753 OFFCURVE",
"53 533 OFFCURVE",
"55 439 CURVE SMOOTH",
"57 345 OFFCURVE",
"146 314 OFFCURVE",
"226 314 CURVE",
"214 277 OFFCURVE",
"204 204 OFFCURVE",
"214 144 CURVE SMOOTH",
"230 46 OFFCURVE",
"294 0 OFFCURVE",
"478 0 CURVE SMOOTH",
"663 0 OFFCURVE",
"727 119 OFFCURVE",
"722 373 CURVE SMOOTH"
);
}
);
width = 777;
}
);
unicode = 0034;
},
{
glyphname = five;
layers = (
{
layerId = "C3045851-C262-4F1E-804D-9F76D78DC8BA";
name = Regular;
paths = (
{
closed = 1;
nodes = (
"572 569 OFFCURVE",
"678 606 OFFCURVE",
"678 682 CURVE SMOOTH",
"678 758 OFFCURVE",
"363 758 OFFCURVE",
"227 738 CURVE SMOOTH",
"92 718 OFFCURVE",
"75 540 OFFCURVE",
"75 477 CURVE SMOOTH",
"75 427 OFFCURVE",
"101 374 OFFCURVE",
"151 348 CURVE",
"68 311 OFFCURVE",
"55 228 OFFCURVE",
"55 175 CURVE SMOOTH",
"55 123 OFFCURVE",
"121 0 OFFCURVE",
"333 0 CURVE SMOOTH",
"545 0 OFFCURVE",
"709 78 OFFCURVE",
"709 310 CURVE SMOOTH",
"709 555 OFFCURVE",
"479 540 OFFCURVE",
"479 540 CURVE"
);
}
);
width = 764;
}
);
unicode = 0035;
},
{
glyphname = six;
layers = (
{
layerId = "C3045851-C262-4F1E-804D-9F76D78DC8BA";
name = Regular;
paths = (
{
closed = 1;
nodes = (
"591 543 OFFCURVE",
"630 567 OFFCURVE",
"630 633 CURVE SMOOTH",
"630 700 OFFCURVE",
"476 749 OFFCURVE",
"389 749 CURVE SMOOTH",
"171 749 OFFCURVE",
"55 603 OFFCURVE",
"55 375 CURVE SMOOTH",
"55 146 OFFCURVE",
"171 0 OFFCURVE",
"389 0 CURVE SMOOTH",
"607 0 OFFCURVE",
"705 134 OFFCURVE",
"705 303 CURVE SMOOTH",
"705 473 OFFCURVE",
"617 509 OFFCURVE",
"564 533 CURVE"
);
},
{
closed = 1;
nodes = (
"388 373 OFFCURVE",
"368 408 OFFCURVE",
"368 434 CURVE SMOOTH",
"368 468 OFFCURVE",
"401 504 OFFCURVE",
"433 504 CURVE SMOOTH",
"492 504 OFFCURVE",
"513 480 OFFCURVE",
"513 448 CURVE SMOOTH",
"513 403 OFFCURVE",
"475 373 OFFCURVE",
"428 373 CURVE SMOOTH"
);
}
);
width = 760;
}
);
unicode = 0036;
},
{
glyphname = seven;
layers = (
{
layerId = "C3045851-C262-4F1E-804D-9F76D78DC8BA";
name = Regular;
paths = (
{
closed = 1;
nodes = (
"171 749 OFFCURVE",
"55 714 OFFCURVE",
"55 646 CURVE SMOOTH",
"55 578 OFFCURVE",
"153 570 OFFCURVE",
"205 570 CURVE",
"93 426 OFFCURVE",
"75 373 OFFCURVE",
"75 278 CURVE SMOOTH",
"75 184 OFFCURVE",
"133 0 OFFCURVE",
"317 0 CURVE SMOOTH",
"501 0 OFFCURVE",
"600 103 OFFCURVE",
"600 287 CURVE SMOOTH",
"600 471 OFFCURVE",
"737 559 OFFCURVE",
"737 633 CURVE SMOOTH",
"737 707 OFFCURVE",
"616 749 OFFCURVE",
"394 749 CURVE SMOOTH"
);
}
);
width = 793;
}
);
unicode = 0037;
},
{
glyphname = eight;
layers = (
{
layerId = "C3045851-C262-4F1E-804D-9F76D78DC8BA";
name = Regular;
paths = (
{
closed = 1;
nodes = (
"667 436 OFFCURVE",
"683 477 OFFCURVE",
"683 527 CURVE SMOOTH",
"683 672 OFFCURVE",
"549 749 OFFCURVE",
"384 749 CURVE SMOOTH",
"219 749 OFFCURVE",
"85 672 OFFCURVE",
"85 527 CURVE SMOOTH",
"85 477 OFFCURVE",
"101 436 OFFCURVE",
"129 403 CURVE",
"83 363 OFFCURVE",
"55 308 OFFCURVE",
"55 239 CURVE SMOOTH",
"55 81 OFFCURVE",
"202 0 OFFCURVE",
"384 0 CURVE SMOOTH",
"566 0 OFFCURVE",
"713 81 OFFCURVE",
"713 239 CURVE SMOOTH",
"713 308 OFFCURVE",
"685 363 OFFCURVE",
"639 403 CURVE"
);
},
{
closed = 1;
nodes = (
"357 477 OFFCURVE",
"331 474 OFFCURVE",
"306 470 CURVE",
"307 506 OFFCURVE",
"341 537 OFFCURVE",
"384 537 CURVE SMOOTH",
"427 537 OFFCURVE",
"461 506 OFFCURVE",
"462 470 CURVE",
"437 474 OFFCURVE",
"411 477 OFFCURVE",
"384 477 CURVE SMOOTH"
);
},
{
closed = 1;
nodes = (
"343 225 OFFCURVE",
"311 249 OFFCURVE",
"311 276 CURVE SMOOTH",
"311 312 OFFCURVE",
"332 350 OFFCURVE",
"384 350 CURVE SMOOTH",
"436 350 OFFCURVE",
"457 312 OFFCURVE",
"457 276 CURVE SMOOTH",
"457 249 OFFCURVE",
"425 225 OFFCURVE",
"384 225 CURVE SMOOTH"
);
}
);
width = 768;
}
);
unicode = 0038;
},
{
glyphname = nine;
layers = (
{
layerId = "C3045851-C262-4F1E-804D-9F76D78DC8BA";
name = Regular;
paths = (
{
closed = 1;
nodes = (
"153 749 OFFCURVE",
"55 616 OFFCURVE",
"55 446 CURVE SMOOTH",
"55 277 OFFCURVE",
"143 241 OFFCURVE",
"196 216 CURVE",
"169 207 OFFCURVE",
"130 183 OFFCURVE",
"130 116 CURVE SMOOTH",
"130 49 OFFCURVE",
"284 0 OFFCURVE",
"371 0 CURVE SMOOTH",
"589 0 OFFCURVE",
"705 146 OFFCURVE",
"705 375 CURVE SMOOTH",
"705 603 OFFCURVE",
"589 749 OFFCURVE",
"371 749 CURVE SMOOTH"
);
},
{
closed = 1;
nodes = (
"268 246 OFFCURVE",
"247 269 OFFCURVE",
"247 301 CURVE SMOOTH",
"247 347 OFFCURVE",
"285 376 OFFCURVE",
"332 376 CURVE SMOOTH",
"372 376 OFFCURVE",
"392 341 OFFCURVE",
"392 316 CURVE SMOOTH",
"392 281 OFFCURVE",
"359 246 OFFCURVE",
"326 246 CURVE SMOOTH"
);
}
);
width = 760;
}
);
unicode = 0039;
},
{
glyphname = asterisk;
layers = (
{
layerId = "C3045851-C262-4F1E-804D-9F76D78DC8BA";
name = Regular;
paths = (
{
closed = 1;
nodes = (
"671 508 OFFCURVE",
"740 571 OFFCURVE",
"704 633 CURVE SMOOTH",
"669 695 OFFCURVE",
"579 667 OFFCURVE",
"483 618 CURVE",
"477 727 OFFCURVE",
"456 818 OFFCURVE",
"385 818 CURVE SMOOTH",
"313 818 OFFCURVE",
"292 727 OFFCURVE",
"287 618 CURVE",
"190 667 OFFCURVE",
"101 695 OFFCURVE",
"65 633 CURVE SMOOTH",
"29 571 OFFCURVE",
"98 508 OFFCURVE",
"189 449 CURVE",
"98 389 OFFCURVE",
"29 326 OFFCURVE",
"65 264 CURVE SMOOTH",
"101 202 OFFCURVE",
"190 230 OFFCURVE",
"287 279 CURVE",
"292 171 OFFCURVE",
"313 79 OFFCURVE",
"385 79 CURVE SMOOTH",
"456 79 OFFCURVE",
"477 171 OFFCURVE",
"483 279 CURVE",
"579 230 OFFCURVE",
"669 202 OFFCURVE",
"704 264 CURVE SMOOTH",
"740 326 OFFCURVE",
"671 389 OFFCURVE",
"581 449 CURVE"
);
}
);
width = 770;
}
);
unicode = 002A;
},
{
glyphname = backslash;
layers = (
{
layerId = "C3045851-C262-4F1E-804D-9F76D78DC8BA";
name = Regular;
paths = (
{
closed = 1;
nodes = (
"75 734 OFFCURVE",
"55 688 OFFCURVE",
"55 614 CURVE SMOOTH",
"55 518 OFFCURVE",
"477 12 OFFCURVE",
"562 12 CURVE SMOOTH",
"631 12 OFFCURVE",
"695 43 OFFCURVE",
"695 119 CURVE SMOOTH",
"695 197 OFFCURVE",
"289 734 OFFCURVE",
"182 734 CURVE SMOOTH"
);
}
);
width = 751;
}
);
unicode = 005C;
},
{
glyphname = colon;
layers = (
{
layerId = "C3045851-C262-4F1E-804D-9F76D78DC8BA";
name = Regular;
paths = (
{
closed = 1;
nodes = (
"290 480 OFFCURVE",
"268 603 OFFCURVE",
"224 645 CURVE SMOOTH",
"205 663 OFFCURVE",
"178 672 OFFCURVE",
"157 672 CURVE SMOOTH",
"135 672 OFFCURVE",
"109 663 OFFCURVE",
"90 645 CURVE SMOOTH",
"45 603 OFFCURVE",
"23 480 OFFCURVE",
"157 480 CURVE SMOOTH"
);
},
{
closed = 1;
nodes = (
"23 351 OFFCURVE",
"45 227 OFFCURVE",
"90 185 CURVE SMOOTH",
"109 167 OFFCURVE",
"135 159 OFFCURVE",
"157 159 CURVE SMOOTH",
"178 159 OFFCURVE",
"205 167 OFFCURVE",
"224 185 CURVE SMOOTH",
"268 227 OFFCURVE",
"290 351 OFFCURVE",
"157 351 CURVE SMOOTH"
);
}
);
width = 313;
}
);
unicode = 003A;
},
{
glyphname = comma;
layers = (
{
layerId = "C3045851-C262-4F1E-804D-9F76D78DC8BA";
name = Regular;
paths = (
{
closed = 1;
nodes = (
"220 -95 OFFCURVE",
"257 15 OFFCURVE",
"257 70 CURVE SMOOTH",
"257 106 OFFCURVE",
"236 184 OFFCURVE",
"157 184 CURVE SMOOTH",
"77 184 OFFCURVE",
"55 105 OFFCURVE",
"55 72 CURVE SMOOTH",
"55 31 OFFCURVE",
"82 -8 OFFCURVE",
"137 -8 CURVE",
"137 -8 OFFCURVE",
"128 -95 OFFCURVE",
"169 -95 CURVE SMOOTH"
);
}
);
width = 312;
}
);
unicode = 002C;
},
{
glyphname = exclam;
layers = (
{
layerId = "C3045851-C262-4F1E-804D-9F76D78DC8BA";
name = Regular;
paths = (
{
closed = 1;
nodes = (
"101 747 OFFCURVE",
"55 662 OFFCURVE",
"55 524 CURVE SMOOTH",
"55 332 OFFCURVE",
"294 387 OFFCURVE",
"371 221 CURVE",
"448 387 OFFCURVE",
"686 332 OFFCURVE",
"686 524 CURVE SMOOTH",
"686 662 OFFCURVE",
"640 747 OFFCURVE",
"371 747 CURVE SMOOTH"
);
},
{
closed = 1;
nodes = (
"349 191 OFFCURVE",
"322 183 OFFCURVE",
"303 164 CURVE SMOOTH",
"258 122 OFFCURVE",
"236 -1 OFFCURVE",
"370 -1 CURVE SMOOTH",
"504 -1 OFFCURVE",
"482 122 OFFCURVE",
"437 164 CURVE SMOOTH",
"418 183 OFFCURVE",
"392 191 OFFCURVE",
"370 191 CURVE SMOOTH"
);
}
);
width = 741;
}
);
unicode = 0021;
},
{
glyphname = numbersign;
lastChange = "2023-03-06 21:17:25 +0000";
layers = (
{
layerId = "C3045851-C262-4F1E-804D-9F76D78DC8BA";
name = Regular;
paths = (
{
closed = 1;
nodes = (
"754 428 OFFCURVE",
"805 451 OFFCURVE",
"805 529 CURVE SMOOTH",
"805 596 OFFCURVE",
"767 622 OFFCURVE",
"669 633 CURVE",
"686 716 OFFCURVE",
"681 751 OFFCURVE",
"636 751 CURVE SMOOTH",
"591 751 OFFCURVE",
"570 718 OFFCURVE",
"548 638 CURVE",
"524 639 OFFCURVE",
"499 639 OFFCURVE",
"471 639 CURVE SMOOTH",
"441 639 LINE",
"457 718 OFFCURVE",
"451 751 OFFCURVE",
"407 751 CURVE SMOOTH",
"362 751 OFFCURVE",
"341 718 OFFCURVE",
"318 637 CURVE",
"185 630 OFFCURVE",
"132 608 OFFCURVE",
"132 529 CURVE SMOOTH",
"132 460 OFFCURVE",
"171 434 OFFCURVE",
"268 425 CURVE",
"256 373 LINE SMOOTH",
"253 358 OFFCURVE",
"249 344 OFFCURVE",
"245 330 CURVE",
"109 324 OFFCURVE",
"55 302 OFFCURVE",
"55 222 CURVE SMOOTH",
"55 154 OFFCURVE",
"94 128 OFFCURVE",
"190 118 CURVE",
"171 35 OFFCURVE",
"174 2 OFFCURVE",
"227 2 CURVE SMOOTH",
"279 2 OFFCURVE",
"298 33 OFFCURVE",
"318 112 CURVE",
"394 112 LINE",
"418 112 LINE",
"400 33 OFFCURVE",
"404 2 OFFCURVE",
"456 2 CURVE SMOOTH",
"508 2 OFFCURVE",
"528 34 OFFCURVE",
"548 115 CURVE",
"679 122 OFFCURVE",
"728 146 OFFCURVE",
"728 222 CURVE SMOOTH",
"728 288 OFFCURVE",
"691 315 OFFCURVE",
"594 325 CURVE",
"598 341 OFFCURVE",
"601 356 OFFCURVE",
"605 373 CURVE SMOOTH",
"617 421 LINE"
);
},
{
closed = 1;
nodes = (
"482 359 OFFCURVE",
"478 345 OFFCURVE",
"475 331 CURVE",
"450 332 OFFCURVE",
"423 332 OFFCURVE",
"394 332 CURVE SMOOTH",
"367 332 LINE",
"376 373 LINE SMOOTH",
"380 389 OFFCURVE",
"384 404 OFFCURVE",
"387 419 CURVE",
"471 419 LINE",
"496 419 LINE",
"492 404 OFFCURVE",
"489 389 OFFCURVE",
"485 373 CURVE SMOOTH"
);
}
);
width = 860;
}
);
unicode = 0023;
},
{
glyphname = period;
layers = (
{
layerId = "C3045851-C262-4F1E-804D-9F76D78DC8BA";
name = Regular;
paths = (
{
closed = 1;
nodes = (
"78 199 OFFCURVE",
"55 154 OFFCURVE",
"55 99 CURVE SMOOTH",
"55 44 OFFCURVE",
"70 0 OFFCURVE",
"154 0 CURVE SMOOTH",
"238 0 OFFCURVE",
"254 44 OFFCURVE",
"254 99 CURVE SMOOTH",
"254 154 OFFCURVE",
"231 199 OFFCURVE",
"154 199 CURVE SMOOTH"
);
}
);
width = 309;
}
);
unicode = 002E;
},
{
glyphname = question;
layers = (
{
layerId = "C3045851-C262-4F1E-804D-9F76D78DC8BA";
name = Regular;
paths = (
{
closed = 1;
nodes = (
"147 746 OFFCURVE",
"55 641 OFFCURVE",
"55 535 CURVE SMOOTH",
"55 351 OFFCURVE",
"263 404 OFFCURVE",
"263 371 CURVE SMOOTH",
"263 337 OFFCURVE",
"196 318 OFFCURVE",
"196 245 CURVE SMOOTH",
"196 173 OFFCURVE",
"232 138 OFFCURVE",
"232 138 CURVE",
"232 318 OFFCURVE",
"679 245 OFFCURVE",
"679 501 CURVE SMOOTH",
"679 635 OFFCURVE",
"593 746 OFFCURVE",
"370 746 CURVE SMOOTH"
);
},
{
closed = 1;
nodes = (
"342 192 OFFCURVE",
"315 183 OFFCURVE",
"296 165 CURVE SMOOTH",
"252 123 OFFCURVE",
"229 0 OFFCURVE",
"363 0 CURVE SMOOTH",
"497 0 OFFCURVE",
"475 123 OFFCURVE",
"430 165 CURVE SMOOTH",
"411 183 OFFCURVE",
"385 192 OFFCURVE",
"363 192 CURVE SMOOTH"
);
}
);
width = 733;
}
);
unicode = 003F;
},
{
glyphname = quotedbl;
layers = (
{
layerId = "C3045851-C262-4F1E-804D-9F76D78DC8BA";
name = Regular;
paths = (
{
closed = 1;
nodes = (
"81 699 OFFCURVE",
"55 663 OFFCURVE",
"55 600 CURVE SMOOTH",
"55 522 OFFCURVE",
"126 494 OFFCURVE",
"153 428 CURVE",
"180 494 OFFCURVE",
"250 522 OFFCURVE",
"250 600 CURVE SMOOTH",
"250 663 OFFCURVE",
"224 699 OFFCURVE",
"153 699 CURVE SMOOTH"
);
},
{
closed = 1;
nodes = (
"308 699 OFFCURVE",
"283 663 OFFCURVE",
"283 600 CURVE SMOOTH",
"283 522 OFFCURVE",
"353 494 OFFCURVE",
"380 428 CURVE",
"407 494 OFFCURVE",
"478 522 OFFCURVE",
"478 600 CURVE SMOOTH",
"478 663 OFFCURVE",
"452 699 OFFCURVE",
"380 699 CURVE SMOOTH"
);
}
);
width = 533;
}
);
unicode = 0022;
},
{
glyphname = quotesingle;
layers = (
{
layerId = "C3045851-C262-4F1E-804D-9F76D78DC8BA";
name = Regular;
paths = (
{
closed = 1;
nodes = (
"171 367 OFFCURVE",
"208 477 OFFCURVE",
"208 532 CURVE SMOOTH",
"208 568 OFFCURVE",
"187 645 OFFCURVE",
"108 645 CURVE SMOOTH",
"28 645 OFFCURVE",
"6 566 OFFCURVE",
"6 534 CURVE SMOOTH",
"6 492 OFFCURVE",
"33 453 OFFCURVE",
"88 453 CURVE",
"88 453 OFFCURVE",
"79 367 OFFCURVE",
"120 367 CURVE SMOOTH"
);
}
);
width = 228;
}
);
unicode = 0027;
},
{
glyphname = semicolon;
layers = (
{
layerId = "C3045851-C262-4F1E-804D-9F76D78DC8BA";
name = Regular;
paths = (
{
closed = 1;
nodes = (
"290 433 OFFCURVE",
"268 556 OFFCURVE",
"224 598 CURVE SMOOTH",
"205 616 OFFCURVE",
"178 624 OFFCURVE",
"157 624 CURVE SMOOTH",
"135 624 OFFCURVE",
"109 616 OFFCURVE",
"90 598 CURVE SMOOTH",
"45 556 OFFCURVE",
"23 433 OFFCURVE",
"157 433 CURVE SMOOTH"
);
},
{
closed = 1;
nodes = (
"78 337 OFFCURVE",
"56 258 OFFCURVE",
"56 225 CURVE SMOOTH",
"56 184 OFFCURVE",
"83 145 OFFCURVE",
"138 145 CURVE",
"138 145 OFFCURVE",
"129 58 OFFCURVE",
"170 58 CURVE SMOOTH",
"221 58 OFFCURVE",
"257 168 OFFCURVE",
"257 224 CURVE SMOOTH",
"258 259 OFFCURVE",
"237 337 OFFCURVE",
"157 337 CURVE SMOOTH"
);
}
);
width = 313;
}
);
unicode = 003B;
},
{
glyphname = slash;
layers = (
{
layerId = "C3045851-C262-4F1E-804D-9F76D78DC8BA";
name = Regular;
paths = (
{
closed = 1;
nodes = (
"477 710 OFFCURVE",
"55 203 OFFCURVE",
"55 107 CURVE SMOOTH",
"55 34 OFFCURVE",
"75 -13 OFFCURVE",
"182 -13 CURVE SMOOTH",
"289 -13 OFFCURVE",
"695 524 OFFCURVE",
"695 603 CURVE SMOOTH",
"695 678 OFFCURVE",
"631 710 OFFCURVE",
"561 710 CURVE SMOOTH"
);
}
);
width = 751;
}
);
unicode = 002F;
},
{
glyphname = bracketleft;
lastChange = "2023-03-06 21:17:25 +0000";
layers = (
{
layerId = "C3045851-C262-4F1E-804D-9F76D78DC8BA";
name = Regular;
paths = (
{
closed = 1;
nodes = (
"279 279 OFFCURVE",
"278 336 OFFCURVE",
"278 397 CURVE SMOOTH",
"278 458 OFFCURVE",
"279 516 OFFCURVE",
"276 566 CURVE",
"343 572 OFFCURVE",
"417 594 OFFCURVE",
"417 665 CURVE SMOOTH",
"417 796 OFFCURVE",
"167 770 OFFCURVE",
"167 770 CURVE",
"52 770 OFFCURVE",
"55 603 OFFCURVE",
"55 397 CURVE SMOOTH",
"55 191 OFFCURVE",
"52 25 OFFCURVE",
"167 25 CURVE",
"167 25 OFFCURVE",
"417 -1 OFFCURVE",
"417 130 CURVE SMOOTH",
"417 201 OFFCURVE",
"343 223 OFFCURVE",
"276 228 CURVE"
);
}
);
width = 472;
}
);
unicode = 005B;
},
{
glyphname = bracketright;
lastChange = "2023-03-06 21:17:25 +0000";
layers = (
{
layerId = "C3045851-C262-4F1E-804D-9F76D78DC8BA";
name = Regular;
paths = (
{
closed = 1;
nodes = (
"306 741 OFFCURVE",
"55 767 OFFCURVE",
"55 636 CURVE SMOOTH",
"55 565 OFFCURVE",
"129 543 OFFCURVE",
"196 537 CURVE",
"194 487 OFFCURVE",
"194 429 OFFCURVE",
"194 368 CURVE SMOOTH",
"194 307 OFFCURVE",
"194 250 OFFCURVE",
"196 199 CURVE",
"129 194 OFFCURVE",
"55 172 OFFCURVE",
"55 101 CURVE SMOOTH",
"55 -30 OFFCURVE",
"306 -4 OFFCURVE",
"306 -4 CURVE",
"420 -4 OFFCURVE",
"417 162 OFFCURVE",
"417 368 CURVE SMOOTH",
"417 574 OFFCURVE",
"420 741 OFFCURVE",
"306 741 CURVE"
);
}
);
width = 472;
}
);
unicode = 005D;
},
{
glyphname = parenleft;
layers = (
{
layerId = "C3045851-C262-4F1E-804D-9F76D78DC8BA";
name = Regular;
paths = (
{
closed = 1;
nodes = (
"352 459 OFFCURVE",
"390 512 OFFCURVE",
"433 549 CURVE SMOOTH",
"477 586 OFFCURVE",
"517 743 OFFCURVE",
"336 743 CURVE SMOOTH",
"155 743 OFFCURVE",
"55 522 OFFCURVE",
"55 368 CURVE SMOOTH",
"55 214 OFFCURVE",
"155 -6 OFFCURVE",
"336 -6 CURVE SMOOTH",
"517 -6 OFFCURVE",
"477 151 OFFCURVE",
"433 188 CURVE SMOOTH",
"390 224 OFFCURVE",
"352 278 OFFCURVE",
"345 368 CURVE"
);
}
);
width = 525;
}
);
unicode = 0028;
},
{
glyphname = parenright;
layers = (
{
layerId = "C3045851-C262-4F1E-804D-9F76D78DC8BA";
name = Regular;
paths = (
{
closed = 1;
nodes = (
"8 743 OFFCURVE",
"49 586 OFFCURVE",
"92 549 CURVE SMOOTH",
"136 512 OFFCURVE",
"174 459 OFFCURVE",
"180 368 CURVE",
"174 278 OFFCURVE",
"136 224 OFFCURVE",
"92 188 CURVE SMOOTH",
"49 151 OFFCURVE",
"8 -6 OFFCURVE",
"189 -6 CURVE SMOOTH",
"370 -6 OFFCURVE",
"470 214 OFFCURVE",
"470 368 CURVE SMOOTH",
"470 522 OFFCURVE",
"370 743 OFFCURVE",
"189 743 CURVE SMOOTH"
);
}
);
width = 525;
}
);
unicode = 0029;
},
{
glyphname = hyphen;
layers = (
{
layerId = "C3045851-C262-4F1E-804D-9F76D78DC8BA";
name = Regular;
paths = (
{
closed = 1;
nodes = (
"628 277 OFFCURVE",
"794 322 OFFCURVE",
"794 378 CURVE SMOOTH",
"794 433 OFFCURVE",
"628 478 OFFCURVE",
"424 478 CURVE SMOOTH",
"220 478 OFFCURVE",
"55 433 OFFCURVE",
"55 378 CURVE SMOOTH",
"55 322 OFFCURVE",
"220 277 OFFCURVE",
"424 277 CURVE SMOOTH"
);
}
);
width = 849;
}
);
unicode = 002D;
},
{
glyphname = quotedblleft;
lastChange = "2023-03-06 21:17:25 +0000";
layers = (
{
layerId = "C3045851-C262-4F1E-804D-9F76D78DC8BA";
name = Regular;
paths = (
{
closed = 1;
nodes = (
"175 601 OFFCURVE",
"184 688 OFFCURVE",
"143 688 CURVE SMOOTH",
"92 688 OFFCURVE",
"55 577 OFFCURVE",
"55 522 CURVE SMOOTH",
"55 487 OFFCURVE",
"76 409 OFFCURVE",
"155 409 CURVE SMOOTH",
"235 409 OFFCURVE",
"257 488 OFFCURVE",
"257 520 CURVE SMOOTH",
"256 562 OFFCURVE",
"230 601 OFFCURVE",
"175 601 CURVE"
);
},
{
closed = 1;
nodes = (
"412 601 OFFCURVE",
"421 688 OFFCURVE",
"380 688 CURVE SMOOTH",
"329 688 OFFCURVE",
"293 577 OFFCURVE",
"293 522 CURVE SMOOTH",
"293 487 OFFCURVE",
"313 409 OFFCURVE",
"393 409 CURVE SMOOTH",
"472 409 OFFCURVE",
"495 488 OFFCURVE",
"494 520 CURVE SMOOTH",
"494 562 OFFCURVE",
"467 601 OFFCURVE",
"412 601 CURVE"
);
}
);
width = 549;
}
);
unicode = 201C;
},
{
glyphname = quotedblright;
layers = (
{
layerId = "C3045851-C262-4F1E-804D-9F76D78DC8BA";
name = Regular;
paths = (
{
closed = 1;
nodes = (
"77 672 OFFCURVE",
"55 593 OFFCURVE",
"55 561 CURVE SMOOTH",
"55 519 OFFCURVE",
"82 480 OFFCURVE",
"137 480 CURVE",
"137 480 OFFCURVE",
"128 394 OFFCURVE",
"169 394 CURVE SMOOTH",
"220 394 OFFCURVE",
"257 504 OFFCURVE",
"257 559 CURVE SMOOTH",
"257 595 OFFCURVE",
"236 672 OFFCURVE",
"157 672 CURVE SMOOTH"
);
},
{
closed = 1;
nodes = (
"315 672 OFFCURVE",
"292 593 OFFCURVE",
"293 561 CURVE SMOOTH",
"293 519 OFFCURVE",
"320 480 OFFCURVE",
"375 480 CURVE",
"375 480 OFFCURVE",
"366 394 OFFCURVE",
"407 394 CURVE SMOOTH",
"458 394 OFFCURVE",
"494 504 OFFCURVE",
"494 559 CURVE SMOOTH",
"494 595 OFFCURVE",
"474 672 OFFCURVE",
"394 672 CURVE SMOOTH"
);
}
);
width = 549;
}
);
unicode = 201D;
},
{
glyphname = quoteleft;
lastChange = "2023-03-06 21:17:25 +0000";
layers = (
{
layerId = "C3045851-C262-4F1E-804D-9F76D78DC8BA";
name = Regular;
paths = (
{
closed = 1;
nodes = (
"92 704 OFFCURVE",
"55 594 OFFCURVE",
"55 539 CURVE SMOOTH",
"55 503 OFFCURVE",
"76 426 OFFCURVE",
"155 426 CURVE SMOOTH",
"235 426 OFFCURVE",
"257 504 OFFCURVE",
"257 537 CURVE SMOOTH",
"256 578 OFFCURVE",
"230 617 OFFCURVE",
"175 617 CURVE",
"175 617 OFFCURVE",
"184 704 OFFCURVE",
"143 704 CURVE SMOOTH"
);
}
);
width = 312;
}
);
unicode = 2018;
},
{
glyphname = quoteright;
layers = (
{
layerId = "C3045851-C262-4F1E-804D-9F76D78DC8BA";
name = Regular;
paths = (
{
closed = 1;
nodes = (
"220 456 OFFCURVE",
"257 567 OFFCURVE",
"257 622 CURVE SMOOTH",
"257 657 OFFCURVE",
"236 735 OFFCURVE",
"157 735 CURVE SMOOTH",
"77 735 OFFCURVE",
"55 656 OFFCURVE",
"55 624 CURVE SMOOTH",
"55 582 OFFCURVE",
"82 543 OFFCURVE",
"137 543 CURVE",
"137 543 OFFCURVE",
"128 456 OFFCURVE",
"169 456 CURVE SMOOTH"
);
}
);
width = 312;
}
);
unicode = 2019;
},
{
glyphname = dollar;
layers = (
{
layerId = "C3045851-C262-4F1E-804D-9F76D78DC8BA";
name = Regular;
paths = (
{
closed = 1;
nodes = (
"554 537 OFFCURVE",
"603 555 OFFCURVE",
"591 594 CURVE SMOOTH",
"583 619 OFFCURVE",
"525 638 OFFCURVE",
"450 646 CURVE",
"443 709 OFFCURVE",
"429 748 OFFCURVE",
"400 748 CURVE SMOOTH",
"371 748 OFFCURVE",
"358 711 OFFCURVE",
"351 651 CURVE",
"339 651 OFFCURVE",
"326 650 OFFCURVE",
"314 650 CURVE",
"307 710 OFFCURVE",
"294 748 OFFCURVE",
"265 748 CURVE SMOOTH",
"235 748 OFFCURVE",
"221 706 OFFCURVE",
"214 638 CURVE",
"196 635 OFFCURVE",
"178 631 OFFCURVE",
"161 626 CURVE SMOOTH",
"98 606 OFFCURVE",
"59 564 OFFCURVE",
"56 503 CURVE SMOOTH",
"52 442 OFFCURVE",
"59 357 OFFCURVE",
"209 271 CURVE",
"129 258 OFFCURVE",
"63 245 OFFCURVE",
"59 206 CURVE SMOOTH",
"54 165 OFFCURVE",
"98 135 OFFCURVE",
"213 122 CURVE",
"219 46 OFFCURVE",
"232 -2 OFFCURVE",
"265 -2 CURVE SMOOTH",
"297 -2 OFFCURVE",
"310 44 OFFCURVE",
"316 116 CURVE",
"349 116 LINE",
"355 44 OFFCURVE",
"368 -2 OFFCURVE",
"400 -2 CURVE SMOOTH",
"432 -2 OFFCURVE",
"446 46 OFFCURVE",
"452 121 CURVE",
"585 139 OFFCURVE",
"663 200 OFFCURVE",
"663 317 CURVE SMOOTH",
"663 459 OFFCURVE",
"460 523 OFFCURVE",
"460 523 CURVE"
);
}
);
width = 718;
}
);
unicode = 0024;
},
{
glyphname = euro;
layers = (
{
layerId = "C3045851-C262-4F1E-804D-9F76D78DC8BA";
name = Regular;
paths = (
{
closed = 1;
nodes = (
"623 380 OFFCURVE",
"623 388 OFFCURVE",
"622 397 CURVE",
"731 400 OFFCURVE",
"805 411 OFFCURVE",
"805 451 CURVE SMOOTH",
"805 488 OFFCURVE",
"744 500 OFFCURVE",
"652 505 CURVE",
"683 519 OFFCURVE",
"697 549 OFFCURVE",
"693 596 CURVE SMOOTH",
"688 661 OFFCURVE",
"595 754 OFFCURVE",
"437 749 CURVE SMOOTH",
"311 746 OFFCURVE",
"222 654 OFFCURVE",
"190 504 CURVE",
"108 499 OFFCURVE",
"55 486 OFFCURVE",
"55 451 CURVE SMOOTH",
"55 419 OFFCURVE",
"103 405 OFFCURVE",
"178 400 CURVE",
"178 391 OFFCURVE",
"177 383 OFFCURVE",
"177 375 CURVE SMOOTH",
"177 372 OFFCURVE",
"178 370 OFFCURVE",
"178 368 CURVE",
"103 362 OFFCURVE",
"55 349 OFFCURVE",
"55 316 CURVE SMOOTH",
"55 283 OFFCURVE",
"106 269 OFFCURVE",
"187 264 CURVE",
"215 104 OFFCURVE",
"306 6 OFFCURVE",
"437 0 CURVE SMOOTH",
"597 -7 OFFCURVE",
"688 106 OFFCURVE",
"693 171 CURVE SMOOTH",
"697 218 OFFCURVE",
"683 249 OFFCURVE",
"651 263 CURVE",
"744 267 OFFCURVE",
"805 280 OFFCURVE",
"805 316 CURVE SMOOTH",
"805 357 OFFCURVE",
"732 368 OFFCURVE",
"623 371 CURVE"
);
}
);
width = 860;
}
);
unicode = 20AC;
},
{
glyphname = divide;
layers = (
{
layerId = "C3045851-C262-4F1E-804D-9F76D78DC8BA";
name = Regular;
paths = (
{
closed = 1;
nodes = (
"508 540 OFFCURVE",
"524 584 OFFCURVE",
"524 639 CURVE SMOOTH",
"524 694 OFFCURVE",
"501 739 OFFCURVE",
"424 739 CURVE SMOOTH",
"348 739 OFFCURVE",
"325 694 OFFCURVE",
"325 639 CURVE SMOOTH",
"325 584 OFFCURVE",
"341 540 OFFCURVE",
"424 540 CURVE SMOOTH"
);
},
{
closed = 1;
nodes = (
"628 271 OFFCURVE",
"794 316 OFFCURVE",
"794 372 CURVE SMOOTH",
"794 427 OFFCURVE",
"628 472 OFFCURVE",
"424 472 CURVE SMOOTH",
"220 472 OFFCURVE",
"55 427 OFFCURVE",
"55 372 CURVE SMOOTH",
"55 316 OFFCURVE",
"220 271 OFFCURVE",
"424 271 CURVE SMOOTH"
);
},
{
closed = 1;
nodes = (
"348 199 OFFCURVE",
"325 154 OFFCURVE",
"325 99 CURVE SMOOTH",
"325 44 OFFCURVE",
"341 0 OFFCURVE",
"424 0 CURVE SMOOTH",
"508 0 OFFCURVE",
"524 44 OFFCURVE",
"524 99 CURVE SMOOTH",
"524 154 OFFCURVE",
"501 199 OFFCURVE",
"424 199 CURVE SMOOTH"
);
}
);
width = 849;
}
);
unicode = 00F7;
},
{
glyphname = equal;
layers = (
{
layerId = "C3045851-C262-4F1E-804D-9F76D78DC8BA";
name = Regular;
paths = (
{
closed = 1;
nodes = (
"628 466 OFFCURVE",
"794 511 OFFCURVE",
"794 567 CURVE SMOOTH",
"794 622 OFFCURVE",
"628 667 OFFCURVE",
"424 667 CURVE SMOOTH",
"220 667 OFFCURVE",
"55 622 OFFCURVE",
"55 567 CURVE SMOOTH",
"55 511 OFFCURVE",
"220 466 OFFCURVE",
"424 466 CURVE SMOOTH"
);
},
{
closed = 1;
nodes = (
"628 127 OFFCURVE",
"794 172 OFFCURVE",
"794 228 CURVE SMOOTH",
"794 283 OFFCURVE",
"628 328 OFFCURVE",
"424 328 CURVE SMOOTH",
"220 328 OFFCURVE",
"55 283 OFFCURVE",
"55 228 CURVE SMOOTH",
"55 172 OFFCURVE",
"220 127 OFFCURVE",
"424 127 CURVE SMOOTH"
);
}
);
width = 849;
}
);
unicode = 003D;
},
{
glyphname = greater;
layers = (
{
layerId = "C3045851-C262-4F1E-804D-9F76D78DC8BA";
name = Regular;
paths = (
{
closed = 1;
nodes = (
"386 573 LINE SMOOTH",
"307 652 OFFCURVE",
"160 799 OFFCURVE",
"79 718 CURVE SMOOTH",
"-2 637 OFFCURVE",
"145 490 OFFCURVE",
"224 411 CURVE",
"145 332 OFFCURVE",
"-2 185 OFFCURVE",
"79 103 CURVE SMOOTH",
"160 22 OFFCURVE",
"307 169 OFFCURVE",
"386 248 CURVE SMOOTH",
"467 330 LINE SMOOTH",
"512 374 OFFCURVE",
"512 447 OFFCURVE",
"467 492 CURVE SMOOTH"
);
}
);
width = 557;
}
);
unicode = 003E;
},
{
glyphname = less;
layers = (
{
layerId = "C3045851-C262-4F1E-804D-9F76D78DC8BA";
name = Regular;
paths = (
{
closed = 1;
nodes = (
"396 815 OFFCURVE",
"249 668 OFFCURVE",
"170 589 CURVE SMOOTH",
"89 507 LINE SMOOTH",
"44 463 OFFCURVE",
"44 390 OFFCURVE",
"89 345 CURVE SMOOTH",
"170 264 LINE SMOOTH",
"249 185 OFFCURVE",
"396 38 OFFCURVE",
"477 119 CURVE SMOOTH",
"559 200 OFFCURVE",
"412 347 OFFCURVE",
"332 426 CURVE",
"412 506 OFFCURVE",
"559 652 OFFCURVE",
"477 734 CURVE SMOOTH"
);
}
);
width = 557;
}
);
unicode = 003C;
},
{
glyphname = percent;
layers = (
{
layerId = "C3045851-C262-4F1E-804D-9F76D78DC8BA";
name = Regular;
paths = (
{
closed = 1;
nodes = (
"239 554 OFFCURVE",
"255 598 OFFCURVE",
"255 653 CURVE SMOOTH",
"255 708 OFFCURVE",
"232 752 OFFCURVE",
"156 752 CURVE SMOOTH",
"79 752 OFFCURVE",
"56 708 OFFCURVE",
"56 653 CURVE SMOOTH",
"56 598 OFFCURVE",
"72 554 OFFCURVE",
"156 554 CURVE SMOOTH"
);
},
{
closed = 1;
nodes = (
"477 726 OFFCURVE",
"55 219 OFFCURVE",
"55 123 CURVE SMOOTH",
"55 50 OFFCURVE",
"75 3 OFFCURVE",
"182 3 CURVE SMOOTH",
"289 3 OFFCURVE",
"695 540 OFFCURVE",
"695 618 CURVE SMOOTH",
"695 694 OFFCURVE",
"631 726 OFFCURVE",
"561 726 CURVE SMOOTH"
);
},
{
closed = 1;
nodes = (
"525 196 OFFCURVE",
"502 151 OFFCURVE",
"502 97 CURVE SMOOTH",
"502 42 OFFCURVE",
"518 -3 OFFCURVE",
"602 -3 CURVE SMOOTH",
"686 -3 OFFCURVE",
"701 42 OFFCURVE",
"701 97 CURVE SMOOTH",
"701 151 OFFCURVE",
"678 196 OFFCURVE",
"602 196 CURVE SMOOTH"
);
}
);
width = 756;
}
);
unicode = 0025;
},
{
glyphname = plus;
layers = (
{
layerId = "C3045851-C262-4F1E-804D-9F76D78DC8BA";
name = Regular;
paths = (
{
closed = 1;
nodes = (
"523 684 OFFCURVE",
"511 818 OFFCURVE",
"424 818 CURVE SMOOTH",
"338 818 OFFCURVE",
"326 684 OFFCURVE",
"324 549 CURVE",
"189 547 OFFCURVE",
"55 535 OFFCURVE",
"55 449 CURVE SMOOTH",
"55 362 OFFCURVE",
"189 350 OFFCURVE",
"324 348 CURVE",
"326 213 OFFCURVE",
"338 79 OFFCURVE",
"424 79 CURVE SMOOTH",
"511 79 OFFCURVE",
"523 213 OFFCURVE",
"525 348 CURVE",
"660 350 OFFCURVE",
"794 362 OFFCURVE",
"794 449 CURVE SMOOTH",
"794 535 OFFCURVE",
"660 547 OFFCURVE",
"525 549 CURVE"
);
}
);
width = 849;
}
);
unicode = 002B;
},
{
glyphname = at;
lastChange = "2023-03-06 21:17:25 +0000";
layers = (
{
layerId = "C3045851-C262-4F1E-804D-9F76D78DC8BA";
name = Regular;
paths = (
{
closed = 1;
nodes = (
"590 189 OFFCURVE",
"530 154 OFFCURVE",
"430 154 CURVE SMOOTH",
"261 154 OFFCURVE",
"206 254 OFFCURVE",
"206 378 CURVE SMOOTH",
"206 501 OFFCURVE",
"260 601 OFFCURVE",
"430 601 CURVE SMOOTH",
"531 601 OFFCURVE",
"596 564 OFFCURVE",
"622 511 CURVE SMOOTH",
"644 469 OFFCURVE",
"643 453 OFFCURVE",
"647 444 CURVE SMOOTH",
"660 417 OFFCURVE",
"687 399 OFFCURVE",
"718 399 CURVE SMOOTH",
"749 399 OFFCURVE",
"775 417 OFFCURVE",
"788 442 CURVE SMOOTH",
"793 452 OFFCURVE",
"796 463 OFFCURVE",
"797 474 CURVE SMOOTH",
"797 476 OFFCURVE",
"794 503 OFFCURVE",
"788 514 CURVE",
"752 653 OFFCURVE",
"648 752 OFFCURVE",
"430 752 CURVE SMOOTH",
"145 752 OFFCURVE",
"55 585 OFFCURVE",
"55 378 CURVE SMOOTH",
"55 171 OFFCURVE",
"147 3 OFFCURVE",
"430 3 CURVE SMOOTH",
"713 3 OFFCURVE",
"805 171 OFFCURVE",
"805 378 CURVE SMOOTH",
"805 300 OFFCURVE",
"734 225 OFFCURVE",
"622 244 CURVE"
);
},
{
closed = 1;
nodes = (
"378 471 OFFCURVE",
"336 429 OFFCURVE",
"336 378 CURVE SMOOTH",
"336 326 OFFCURVE",
"378 284 OFFCURVE",
"430 284 CURVE SMOOTH",
"449 284 OFFCURVE",
"466 290 OFFCURVE",
"481 299 CURVE",
"501 271 OFFCURVE",
"537 262 OFFCURVE",
"584 264 CURVE",
"540 264 OFFCURVE",
"524 317 OFFCURVE",
"524 378 CURVE SMOOTH",
"524 429 OFFCURVE",
"482 471 OFFCURVE",
"430 471 CURVE SMOOTH"
);
}
);
width = 860;
}
);
unicode = 0040;
},
{
glyphname = ampersand;
layers = (
{
layerId = "C3045851-C262-4F1E-804D-9F76D78DC8BA";
name = Regular;
paths = (
{
closed = 1;
nodes = (
"602 355 OFFCURVE",
"635 407 OFFCURVE",
"635 442 CURVE SMOOTH",
"635 478 OFFCURVE",
"604 527 OFFCURVE",
"561 543 CURVE",
"595 556 OFFCURVE",
"626 603 OFFCURVE",
"626 645 CURVE SMOOTH",
"626 688 OFFCURVE",
"548 752 OFFCURVE",
"350 752 CURVE SMOOTH",
"151 752 OFFCURVE",
"102 652 OFFCURVE",
"102 607 CURVE SMOOTH",
"102 563 OFFCURVE",
"84 494 OFFCURVE",
"180 447 CURVE",
"180 447 OFFCURVE",
"55 380 OFFCURVE",
"55 221 CURVE SMOOTH",
"55 63 OFFCURVE",
"196 3 OFFCURVE",
"292 3 CURVE SMOOTH",
"335 3 OFFCURVE",
"423 16 OFFCURVE",
"474 54 CURVE",
"486 34 OFFCURVE",
"499 3 OFFCURVE",
"577 3 CURVE SMOOTH",
"655 3 OFFCURVE",
"704 52 OFFCURVE",
"704 138 CURVE SMOOTH",
"704 259 OFFCURVE",
"651 337 OFFCURVE",
"553 337 CURVE"
);
}
);
width = 760;
}
);
unicode = 0026;
},
{
glyphname = uniF001;
layers = (
{
layerId = "C3045851-C262-4F1E-804D-9F76D78DC8BA";
name = Regular;
paths = (
{
closed = 1;
nodes = (
"196 518 OFFCURVE",
"91 459 OFFCURVE",
"91 428 CURVE SMOOTH",
"91 396 OFFCURVE",
"106 376 OFFCURVE",
"128 368 CURVE",
"81 309 OFFCURVE",
"55 246 OFFCURVE",
"55 188 CURVE SMOOTH",
"55 103 OFFCURVE",
"88 -14 OFFCURVE",
"257 -14 CURVE SMOOTH",
"426 -14 OFFCURVE",
"487 54 OFFCURVE",
"487 54 CURVE",
"494 20 OFFCURVE",
"527 -11 OFFCURVE",
"557 -11 CURVE SMOOTH",
"637 -11 OFFCURVE",
"646 140 OFFCURVE",
"646 263 CURVE SMOOTH",
"646 416 OFFCURVE",
"502 518 OFFCURVE",
"360 518 CURVE SMOOTH"
);
},
{
closed = 1;
nodes = (
"366 361 OFFCURVE",
"414 325 OFFCURVE",
"423 272 CURVE",
"369 221 OFFCURVE",
"304 299 OFFCURVE",
"318 354 CURVE"
);
}
